<svg width="36" height="24" viewBox="0 0 36 24" fill="none" xmlns="http://www.w3.org/2000/svg">
<path d="M33 0H3C1.34315 0 0 1.34315 0 3V21C0 22.6569 1.34315 24 3 24H33C34.6569 24 36 22.6569 36 21V3C36 1.34315 34.6569 0 33 0Z" fill="white"/>
<path d="M21 0H15V9H0V15H15V24H21V15H36V9H21V0Z" fill="#E8112D"/>
<path d="M17.25 4.5V11.25H10.5L9 9.75V14.25L10.5 12.75H17.25V19.5L15.75 21H20.25L18.75 19.5V12.749L25.5 12.75L27 14.25V9.75L25.5 11.25L18.75 11.249V4.49902L20.25 3H15.75L17.25 4.5Z" fill="#F9DD16"/>
<path fill-rule="evenodd" clip-rule="evenodd" d="M33 1.5H3C2.17157 1.5 1.5 2.17157 1.5 3V21C1.5 21.8284 2.17157 22.5 3 22.5H33C33.8284 22.5 34.5 21.8284 34.5 21V3C34.5 2.17157 33.8284 1.5 33 1.5ZM3 0C1.34315 0 0 1.34315 0 3V21C0 22.6569 1.34315 24 3 24H33C34.6569 24 36 22.6569 36 21V3C36 1.34315 34.6569 0 33 0H3Z" fill="black" fill-opacity="0.08"/>
</svg>
