<svg width="36" height="24" viewBox="0 0 36 24" fill="none" xmlns="http://www.w3.org/2000/svg">
<path d="M22.2385 7.84919C22.1484 7.93006 22.0655 8.00789 21.9946 8.07864L22.3222 7.7512C22.2913 7.78213 22.2634 7.81488 22.2385 7.84919Z" fill="white"/>
<path fill-rule="evenodd" clip-rule="evenodd" d="M3 0H33C34.6569 0 36 1.34315 36 3V21C36 22.6569 34.6569 24 33 24H3C1.34308 24 0 22.6569 0 21V3C0 1.34315 1.34308 0 3 0ZM26.1207 4.17131C26.3617 3.80978 26.2332 3.67782 25.8327 3.87805L22.483 5.55295C22.0664 5.76125 21.4111 6.0022 20.9832 6.10915L19.3325 6.52184C18.9003 6.62988 18.2126 6.64644 17.7867 6.56125L15.329 6.06975C14.8989 5.9837 14.4445 6.25548 14.3047 6.67487L14.011 7.55612C13.8691 7.98178 13.3997 8.31549 12.9578 8.31549C12.529 8.31549 11.9073 8.56604 11.5983 8.8751L11.1174 9.35589C10.8078 9.6655 10.1997 9.9155 9.75787 9.9155H10.5579C10.1204 9.9155 9.75787 10.2737 9.75787 10.7155C9.75787 11.1444 10.0084 11.766 10.3174 12.0751L10.7983 12.5559C11.1079 12.8655 11.6759 13.2745 12.0681 13.4706L13.8477 14.3604C14.2394 14.5562 14.7202 14.3909 14.9203 13.9904L14.9952 13.8406C15.2036 13.424 15.7161 13.1155 16.158 13.1155C16.5868 13.1155 17.2978 13.0022 17.7173 12.8624L18.5986 12.5686C19.0241 12.4267 19.5201 11.9909 19.7205 11.5904L19.7953 11.4406C20.0035 11.024 20.4825 10.8778 20.883 11.078L21.0328 11.1529C21.4493 11.3612 22.0084 11.265 22.3174 10.9559L22.7983 10.4751C23.1079 10.1655 23.1074 9.66495 22.7983 9.35589L22.3174 8.8751C22.0386 8.59622 22.0131 8.16066 22.2385 7.84919C22.5449 7.57444 22.9343 7.26461 23.2137 7.07829L24.3021 6.3527C24.6636 6.11169 25.1536 5.62188 25.3951 5.25969L26.1207 4.17131ZM19.2579 18.7155C19.2579 19.5439 18.5863 20.2155 17.7579 20.2155C16.9296 20.2155 16.2579 19.5439 16.2579 18.7155C16.2579 17.8871 16.9296 17.2155 17.7579 17.2155C18.5863 17.2155 19.2579 17.8871 19.2579 18.7155ZM22.5518 15.3194L22.6425 15.1577C22.84 14.7625 23.3205 14.6024 23.7156 14.8C24.111 14.9975 24.271 15.4781 24.0734 15.8733C23.7142 16.5921 23.1075 17.1985 22.3297 17.7171C21.9108 17.9965 21.4666 18.2333 21.0229 18.4305L20.7294 18.5553C20.5975 18.6086 20.4895 18.6482 20.4109 18.6744C19.9918 18.8142 19.5386 18.5876 19.3989 18.1685C19.2592 17.7493 19.4857 17.2963 19.905 17.1566L20.0436 17.106C20.1304 17.0725 20.2423 17.0265 20.373 16.9685C20.7393 16.8057 21.1053 16.6105 21.4422 16.3859C21.9375 16.0556 22.3191 15.6947 22.5518 15.3194ZM11.7999 14.8C12.195 14.6024 12.6757 14.7625 12.8732 15.1577C13.0898 15.5909 13.5073 16.0085 14.0735 16.3859C14.4104 16.6105 14.7762 16.8057 15.1426 16.9685C15.1998 16.9939 15.2532 17.017 15.3027 17.0377C15.3662 17.0644 15.423 17.0871 15.4719 17.106L15.6107 17.1566C16.0298 17.2963 16.2563 17.7493 16.1166 18.1685C15.9769 18.5876 15.5239 18.8142 15.1047 18.6744C15.026 18.6482 14.918 18.6086 14.7863 18.5553L14.4928 18.4305C14.049 18.2333 13.6049 17.9965 13.186 17.7171C12.408 17.1985 11.8015 16.5921 11.4421 15.8733C11.2445 15.4781 11.4047 14.9975 11.7999 14.8Z" fill="white"/>
<path fill-rule="evenodd" clip-rule="evenodd" d="M25.8327 3.87805C26.2332 3.67782 26.3617 3.80978 26.1207 4.17131L25.3951 5.25969C25.1536 5.62188 24.6636 6.11169 24.3021 6.3527L23.2137 7.07829C22.8516 7.31975 22.3047 7.76862 21.9936 8.0798L22.3222 7.7512C22.0105 8.06285 22.0078 8.5655 22.3174 8.8751L22.7983 9.35589C23.1074 9.66495 23.1079 10.1655 22.7983 10.4751L22.3174 10.9559C22.0084 11.265 21.4493 11.3612 21.0328 11.1529L20.883 11.078C20.4825 10.8778 20.0035 11.024 19.7953 11.4406L19.7205 11.5904C19.5201 11.9909 19.0241 12.4267 18.5986 12.5686L17.7173 12.8624C17.2978 13.0022 16.5868 13.1155 16.158 13.1155C15.7161 13.1155 15.2036 13.424 14.9952 13.8406L14.9203 13.9904C14.7202 14.3909 14.2394 14.5562 13.8477 14.3604L12.0681 13.4706C11.6759 13.2745 11.1079 12.8655 10.7983 12.5559L10.3174 12.0751C10.0084 11.766 9.75787 11.1444 9.75787 10.7155C9.75787 10.2737 10.1204 9.9155 10.5579 9.9155H9.75787C10.1997 9.9155 10.8078 9.6655 11.1174 9.35589L11.5983 8.8751C11.9073 8.56604 12.529 8.31549 12.9578 8.31549C13.3997 8.31549 13.8691 7.98178 14.011 7.55612L14.3047 6.67487C14.4445 6.25548 14.8989 5.9837 15.329 6.06975L17.7867 6.56125C18.2126 6.64644 18.9003 6.62988 19.3325 6.52184L20.9832 6.10915C21.4111 6.0022 22.0664 5.76125 22.483 5.55295L22.6328 5.47805C23.0332 5.27782 23.6664 4.96125 24.083 4.75295L24.2328 4.67805C24.6332 4.47782 25.2664 4.16125 25.683 3.95295L25.8327 3.87805Z" fill="#E7832C"/>
<path d="M17.7579 20.2155C18.5863 20.2155 19.2579 19.5439 19.2579 18.7155C19.2579 17.8871 18.5863 17.2155 17.7579 17.2155C16.9296 17.2155 16.2579 17.8871 16.2579 18.7155C16.2579 19.5439 16.9296 20.2155 17.7579 20.2155Z" fill="#445128"/>
<path d="M22.5518 15.3194L22.6425 15.1577C22.84 14.7625 23.3205 14.6024 23.7156 14.8C24.111 14.9975 24.271 15.4781 24.0734 15.8733C23.7142 16.5921 23.1075 17.1985 22.3297 17.7171C21.9108 17.9965 21.4666 18.2333 21.0229 18.4305L20.7294 18.5553C20.5975 18.6086 20.4895 18.6482 20.4109 18.6744C19.9918 18.8142 19.5386 18.5876 19.3989 18.1685C19.2592 17.7493 19.4857 17.2963 19.905 17.1566L20.0436 17.106C20.1304 17.0725 20.2423 17.0265 20.373 16.9685C20.7393 16.8057 21.1053 16.6105 21.4422 16.3859C21.9375 16.0556 22.3191 15.6947 22.5518 15.3194Z" fill="#737D5E"/>
<path d="M12.8732 15.1577C12.6757 14.7625 12.195 14.6024 11.7999 14.8C11.4047 14.9975 11.2445 15.4781 11.4421 15.8733C11.8015 16.5921 12.408 17.1985 13.186 17.7171C13.6049 17.9965 14.049 18.2333 14.4928 18.4305L14.7863 18.5553C14.918 18.6086 15.026 18.6482 15.1047 18.6744C15.5239 18.8142 15.9769 18.5876 16.1166 18.1685C16.2563 17.7493 16.0298 17.2963 15.6107 17.1566L15.4719 17.106C15.385 17.0725 15.2734 17.0265 15.1426 16.9685C14.7762 16.8057 14.4104 16.6105 14.0735 16.3859C13.5073 16.0085 13.0898 15.5909 12.8732 15.1577Z" fill="#737D5E"/>
<path fill-rule="evenodd" clip-rule="evenodd" d="M33 1.5H3C2.17157 1.5 1.5 2.17157 1.5 3V21C1.5 21.8284 2.17157 22.5 3 22.5H33C33.8284 22.5 34.5 21.8284 34.5 21V3C34.5 2.17157 33.8284 1.5 33 1.5ZM3 0C1.34308 0 0 1.34315 0 3V21C0 22.6569 1.34308 24 3 24H33C34.6569 24 36 22.6569 36 21V3C36 1.34315 34.6569 0 33 0H3Z" fill="black" fill-opacity="0.08"/>
</svg>
