<svg width="304" height="232" viewBox="0 0 304 232" fill="none" xmlns="http://www.w3.org/2000/svg">
<g clip-path="url(#clip0_12541_14046)">
<path d="M193.522 174.497C193.696 174.2 193.822 173.98 193.953 173.763C194.136 173.458 194.444 173.343 194.779 173.438C194.914 173.476 194.933 173.572 194.933 173.687C194.933 174.434 194.93 175.182 194.932 175.929C194.932 176.096 194.845 176.135 194.694 176.149C194.182 176.196 194.14 176.164 194.137 175.645C194.136 175.466 194.137 175.286 194.137 175.039C193.819 175.265 193.785 175.639 193.494 175.846C193.324 175.579 193.165 175.325 193.005 175.072C192.972 175.078 192.94 175.084 192.907 175.09C192.907 175.315 192.893 175.542 192.91 175.766C192.931 176.035 192.859 176.162 192.555 176.151C192.115 176.136 192.111 176.156 192.108 175.699C192.104 175.097 192.101 174.495 192.113 173.893C192.116 173.733 192.011 173.51 192.277 173.439C192.587 173.355 192.9 173.449 193.039 173.675C193.191 173.923 193.334 174.175 193.522 174.496V174.497Z" fill="#25306B"/>
<path d="M190.798 173.434C190.999 173.434 191.2 173.426 191.401 173.436C191.535 173.443 191.721 173.374 191.778 173.559C191.831 173.731 191.836 173.925 191.775 174.097C191.723 174.245 191.561 174.207 191.441 174.202C191.226 174.193 191.156 174.289 191.16 174.495C191.17 174.951 191.148 175.408 191.168 175.864C191.181 176.195 190.967 176.146 190.77 176.145C190.577 176.144 190.357 176.2 190.372 175.868C190.39 175.449 190.367 175.029 190.378 174.609C190.385 174.36 190.354 174.2 190.038 174.192C189.73 174.183 189.727 174.114 189.733 173.713C189.737 173.441 189.888 173.428 190.087 173.432C190.325 173.437 190.562 173.433 190.799 173.433L190.798 173.434Z" fill="white"/>
<path d="M195.335 128.754C166.518 128.753 137.701 128.753 108.884 128.754C108.63 128.754 108.374 128.723 108.121 128.785V166.815C108.311 166.831 108.46 166.943 108.619 167.029C119.018 172.626 129.417 178.224 139.815 183.822C143.618 185.869 147.422 187.916 151.221 189.971C151.435 190.086 151.697 190.144 151.835 190.378H152.164C152.703 190.023 153.286 189.748 153.847 189.43C155.078 188.734 156.315 188.041 157.565 187.389C160.088 186.075 162.585 184.716 165.091 183.372C169.243 181.148 173.378 178.891 177.525 176.655C181.188 174.68 184.856 172.715 188.523 170.749C190.974 169.435 193.426 168.126 195.878 166.815V128.785C195.696 128.774 195.515 128.753 195.334 128.753L195.335 128.754Z" fill="#25306B"/>
<path d="M184.038 148.634V147.824C183.875 147.754 183.824 147.884 183.755 147.951C183.014 148.678 182.1 148.885 181.098 148.892C180.398 148.898 179.784 148.662 179.194 148.329C178.595 147.991 178.124 147.513 177.753 146.936C177.352 146.311 177.108 145.627 177.037 144.891C176.908 143.548 177.204 142.318 178.066 141.253C179.707 139.227 182.667 139.352 183.874 140.783C183.893 140.804 183.937 140.802 183.981 140.814C184.091 140.693 184.034 140.541 184.035 140.407C184.041 139.257 184.037 138.108 184.039 136.958C184.041 136.502 184.045 136.499 184.475 136.495C184.949 136.491 185.424 136.489 185.898 136.496C186.276 136.501 186.279 136.507 186.288 136.902C186.294 137.175 186.29 137.449 186.29 137.723C186.29 141.154 186.29 144.584 186.289 148.015C186.289 148.125 186.281 148.235 186.291 148.343C186.309 148.551 186.23 148.641 186.014 148.638C185.377 148.631 184.742 148.635 184.039 148.635L184.038 148.634ZM184.038 144.308C184.038 142.892 183.035 141.859 181.656 141.854C180.262 141.849 179.222 142.916 179.237 144.337C179.252 145.741 180.268 146.755 181.659 146.752C183.046 146.749 184.039 145.729 184.038 144.308Z" fill="white"/>
<path d="M129.331 146.027C128.455 147.437 127.257 148.331 125.718 148.68C123.108 149.272 120.816 148.666 119.115 146.52C116.59 143.335 117.659 137.852 122.229 136.518C124.779 135.773 127.498 136.626 129.006 138.64C129.05 138.699 129.095 138.756 129.136 138.817C129.331 139.113 129.334 139.118 129.02 139.305C128.534 139.594 128.037 139.866 127.557 140.164C127.339 140.299 127.232 140.277 127.084 140.053C125.707 137.974 121.938 138.097 120.694 140.471C119.976 141.842 119.965 143.25 120.674 144.621C121.306 145.844 122.396 146.428 123.737 146.526C125.114 146.628 126.296 146.217 127.128 145.043C127.229 144.9 127.318 144.848 127.485 144.948C128.078 145.302 128.678 145.646 129.332 146.027H129.331Z" fill="white"/>
<path d="M169.593 145.283C169.762 145.963 170.183 146.414 170.815 146.642C171.88 147.026 172.895 146.967 173.774 146.164C173.901 146.048 173.992 146.009 174.149 146.103C174.663 146.412 175.185 146.708 175.735 147.028C175.284 147.705 174.695 148.167 173.987 148.494C173.611 148.668 173.192 148.866 172.823 148.881C172.369 148.899 171.891 148.895 171.424 148.874C170.608 148.836 169.888 148.555 169.218 148.149C168.228 147.548 167.631 146.634 167.352 145.516C167.117 144.572 167.153 143.634 167.466 142.714C168.066 140.944 169.644 139.828 171.516 139.731C174.319 139.587 176.454 141.868 176.145 144.88C176.11 145.224 176.101 145.229 175.679 145.23C173.837 145.233 171.994 145.23 170.153 145.233C169.977 145.233 169.796 145.199 169.594 145.283H169.593ZM173.873 143.456C173.672 142.386 172.82 141.713 171.748 141.73C170.602 141.749 169.743 142.427 169.593 143.456H173.873Z" fill="white"/>
<path d="M132.196 145.297C132.38 145.984 132.812 146.438 133.471 146.663C134.615 147.054 135.664 146.91 136.565 146.005C137.146 146.34 137.727 146.676 138.332 147.025C137.86 147.748 137.242 148.244 136.472 148.534C135.12 149.044 133.765 149.015 132.425 148.473C131.744 148.197 131.192 147.749 130.742 147.173C130.26 146.555 129.977 145.847 129.865 145.075C129.558 142.989 130.484 140.783 132.699 140.021C136.085 138.857 138.948 141.247 138.774 144.637C138.77 144.71 138.756 144.782 138.754 144.855C138.742 145.147 138.6 145.241 138.303 145.239C136.459 145.226 134.615 145.231 132.77 145.235C132.594 145.235 132.411 145.19 132.196 145.297ZM132.181 143.457H136.477C136.306 142.421 135.466 141.738 134.387 141.732C133.24 141.726 132.382 142.393 132.181 143.457Z" fill="white"/>
<path d="M143.4 160.152C143.425 159.042 143.687 157.694 144.514 156.477C144.799 156.059 145.156 155.794 145.56 155.558C146.945 154.748 149.093 154.68 150.558 156.304C151.17 156.982 151.482 157.861 151.65 158.775C151.924 160.257 151.889 161.721 151.387 163.148C150.89 164.564 149.977 165.569 148.445 165.871C147.178 166.12 145.993 165.869 145.01 165.032C144.458 164.562 144.091 163.909 143.842 163.21C143.527 162.322 143.396 161.407 143.4 160.152H143.4ZM145.487 160.47C145.487 160.652 145.476 160.835 145.489 161.017C145.534 161.654 145.632 162.282 145.92 162.864C146.259 163.547 146.819 163.914 147.572 163.925C148.322 163.936 148.903 163.605 149.264 162.928C149.455 162.572 149.575 162.194 149.644 161.796C149.793 160.926 149.788 160.058 149.646 159.187C149.572 158.734 149.436 158.302 149.191 157.911C148.442 156.716 146.746 156.732 146.013 157.939C145.871 158.174 145.763 158.424 145.693 158.689C145.538 159.272 145.464 159.866 145.487 160.471V160.47Z" fill="white"/>
<path d="M167.189 158.434C167.189 159.306 167.189 160.174 167.189 161.046C167.189 161.728 167.111 161.749 167.812 161.732C167.89 161.732 167.973 161.741 168.051 161.732C168.356 161.703 168.5 161.833 168.471 162.154C168.463 162.263 168.48 162.373 168.471 162.478C168.442 162.798 168.599 163.173 168.393 163.426C168.195 163.666 167.841 163.518 167.556 163.523C167.272 163.523 167.181 163.645 167.189 163.914C167.198 164.348 167.181 164.786 167.194 165.22C167.206 165.524 167.115 165.679 166.794 165.658C166.32 165.629 165.738 165.844 165.4 165.566C165.079 165.305 165.297 164.702 165.285 164.247C165.264 163.514 165.347 163.523 164.597 163.527C163.612 163.527 162.626 163.531 161.641 163.527C161.023 163.527 161.039 163.514 161.006 162.92C160.965 162.196 161.118 161.581 161.559 160.957C162.795 159.222 163.958 157.436 165.12 155.649C165.409 155.203 165.706 154.917 166.262 155.022C166.419 155.051 166.583 155.039 166.74 155.022C167.09 154.988 167.202 155.144 167.198 155.494C167.181 156.471 167.194 157.452 167.194 158.434H167.189ZM162.911 161.732C163.669 161.732 164.279 161.732 164.889 161.732C165.079 161.732 165.273 161.732 165.273 161.454C165.273 160.439 165.273 159.42 165.273 158.404C165.223 158.388 165.17 158.375 165.12 158.358C164.407 159.445 163.698 160.532 162.907 161.737L162.911 161.732Z" fill="#FFFBFB"/>
<path d="M162.91 161.732C163.698 160.527 164.411 159.44 165.124 158.354C165.173 158.37 165.227 158.383 165.276 158.4C165.276 159.415 165.276 160.435 165.276 161.45C165.276 161.728 165.083 161.728 164.893 161.728C164.283 161.728 163.673 161.728 162.914 161.728L162.91 161.732Z" fill="#25306B"/>
<path d="M154.093 158.212C153.544 157.889 152.984 157.56 152.431 157.234C153.348 154.884 156.406 154.395 158.137 155.734C159.34 156.665 159.691 158.32 159.009 159.793C158.69 160.482 158.224 161.064 157.693 161.598C157.023 162.27 156.35 162.938 155.684 163.602C155.773 163.792 155.92 163.718 156.031 163.718C157.054 163.725 158.076 163.72 159.098 163.723C159.502 163.725 159.505 163.731 159.509 164.151C159.513 164.534 159.513 164.918 159.509 165.302C159.505 165.699 159.502 165.702 159.08 165.705C158.532 165.708 157.985 165.706 157.437 165.706C155.977 165.706 154.516 165.709 153.056 165.705C152.397 165.703 152.496 165.781 152.487 165.113C152.484 164.948 152.507 164.78 152.482 164.62C152.417 164.208 152.618 163.915 152.895 163.665C154.077 162.598 155.14 161.414 156.253 160.28C156.561 159.968 156.831 159.621 157.036 159.23C157.191 158.935 157.294 158.622 157.272 158.286C157.21 157.341 156.376 156.805 155.413 157.084C154.993 157.205 154.671 157.46 154.41 157.806C154.313 157.934 154.277 158.108 154.093 158.212V158.212Z" fill="white"/>
<path d="M137.113 158.219C136.564 158.002 136.165 157.6 135.624 157.454C135.412 157.397 135.381 157.159 135.519 156.917C136.097 155.907 136.947 155.273 138.102 155.066C138.722 154.955 139.334 154.981 139.94 155.162C141.813 155.719 142.751 157.535 142.127 159.395C141.866 160.173 141.401 160.823 140.841 161.406C140.247 162.025 139.636 162.627 139.025 163.229C138.896 163.357 138.737 163.454 138.616 163.546C138.738 163.795 138.884 163.721 138.996 163.722C140.017 163.729 141.039 163.723 142.061 163.727C142.477 163.729 142.481 163.735 142.486 164.146C142.491 164.566 142.476 164.986 142.491 165.405C142.499 165.649 142.398 165.733 142.17 165.71C142.116 165.704 142.061 165.71 142.007 165.71C139.981 165.71 137.956 165.71 135.931 165.71C135.423 165.71 135.483 165.743 135.43 165.254C135.349 164.505 135.587 163.96 136.145 163.436C137.199 162.444 138.172 161.367 139.18 160.325C139.57 159.923 139.908 159.481 140.115 158.96C140.324 158.435 140.296 157.909 139.913 157.467C139.492 156.982 138.932 156.944 138.355 157.098C137.769 157.253 137.409 157.689 137.113 158.22L137.113 158.219Z" fill="white"/>
<path d="M158.093 145.378C158.093 144.429 158.096 143.48 158.092 142.531C158.091 142.14 158.085 142.147 157.716 142.127C157.448 142.112 157.112 142.25 156.928 142.056C156.748 141.866 156.874 141.533 156.866 141.264C156.854 140.918 156.868 140.571 156.862 140.224C156.858 140.043 156.919 139.956 157.113 139.964C157.35 139.975 157.587 139.953 157.824 139.969C158.048 139.984 158.109 139.874 158.11 139.677C158.11 139.311 158.167 138.951 158.26 138.597C158.564 137.434 159.302 136.7 160.461 136.395C160.921 136.274 161.393 136.234 161.869 136.236C162.108 136.238 162.188 136.336 162.184 136.564C162.175 137.075 162.175 137.586 162.184 138.097C162.188 138.326 162.114 138.429 161.868 138.408C161.707 138.394 161.539 138.416 161.379 138.448C160.73 138.574 160.332 139.091 160.357 139.742C160.363 139.905 160.421 139.97 160.582 139.968C161.02 139.964 161.458 139.976 161.896 139.964C162.111 139.958 162.188 140.045 162.187 140.25C162.182 140.78 162.179 141.309 162.191 141.838C162.197 142.095 162.067 142.14 161.851 142.132C161.541 142.121 161.231 142.127 160.921 142.13C160.285 142.135 160.358 142.065 160.357 142.674C160.354 144.462 160.358 146.25 160.355 148.038C160.354 148.682 160.442 148.633 159.782 148.636C159.381 148.637 158.98 148.638 158.578 148.636C158.099 148.633 158.096 148.631 158.095 148.171C158.093 147.24 158.094 146.309 158.094 145.379L158.093 145.378Z" fill="white"/>
<path d="M149.585 137.541C149.585 138.164 149.585 138.724 149.585 139.284C149.585 139.393 149.595 139.504 149.583 139.612C149.55 139.913 149.701 139.982 149.971 139.969C150.353 139.951 150.737 139.961 151.12 139.966C151.523 139.97 151.527 139.973 151.531 140.394C151.535 140.868 151.523 141.343 151.534 141.817C151.54 142.055 151.446 142.137 151.213 142.13C150.775 142.118 150.337 142.135 149.899 142.123C149.669 142.117 149.578 142.193 149.58 142.433C149.59 143.546 149.575 144.66 149.592 145.773C149.6 146.298 149.779 146.473 150.29 146.599C150.616 146.679 150.944 146.637 151.271 146.634C151.453 146.632 151.535 146.681 151.532 146.876C151.523 147.369 151.521 147.862 151.534 148.354C151.54 148.561 151.468 148.657 151.265 148.675C150.498 148.745 149.736 148.76 148.986 148.544C148.13 148.298 147.638 147.721 147.448 146.865C147.36 146.47 147.335 146.072 147.336 145.669C147.338 144.629 147.339 143.589 147.336 142.548C147.335 142.136 147.329 142.134 146.917 142.128C146.661 142.124 146.406 142.119 146.151 142.13C145.93 142.139 145.812 142.079 145.819 141.827C145.833 141.298 145.83 140.768 145.821 140.239C145.817 140.017 145.92 139.958 146.12 139.963C146.43 139.972 146.74 139.957 147.05 139.967C147.259 139.974 147.345 139.896 147.339 139.683C147.329 139.318 147.356 138.952 147.331 138.588C147.31 138.293 147.431 138.173 147.703 138.1C148.3 137.94 148.89 137.75 149.585 137.542V137.541Z" fill="white"/>
<path d="M142.272 141.145C142.767 140.304 143.521 139.901 144.471 139.812C144.72 139.789 144.793 139.877 144.789 140.113C144.78 140.733 144.777 141.354 144.789 141.975C144.794 142.222 144.694 142.296 144.465 142.277C144.227 142.256 143.994 142.304 143.762 142.36C142.801 142.588 142.212 143.272 142.167 144.255C142.142 144.801 142.158 145.35 142.158 145.897C142.157 146.682 142.15 147.467 142.162 148.251C142.166 148.515 142.114 148.654 141.806 148.641C141.278 148.62 140.747 148.622 140.219 148.641C139.941 148.651 139.885 148.537 139.89 148.287C139.903 147.575 139.895 146.864 139.895 146.152C139.895 144.254 139.893 142.355 139.895 140.457C139.895 139.974 139.899 139.971 140.357 139.968C140.85 139.965 141.343 139.974 141.835 139.963C142.066 139.957 142.169 140.034 142.157 140.275C142.144 140.559 142.154 140.844 142.154 141.128C142.193 141.134 142.232 141.139 142.271 141.145L142.272 141.145Z" fill="white"/>
<path d="M153.189 144.29C153.189 143.032 153.189 141.774 153.189 140.516C153.189 139.9 153.159 139.969 153.759 139.967C154.16 139.966 154.561 139.966 154.962 139.967C155.443 139.97 155.446 139.971 155.448 140.432C155.451 141.126 155.449 141.818 155.449 142.511C155.449 144.371 155.45 146.232 155.447 148.092C155.446 148.688 155.528 148.633 154.883 148.636C154.464 148.638 154.045 148.639 153.625 148.635C153.194 148.631 153.19 148.628 153.189 148.175C153.187 146.88 153.189 145.586 153.189 144.291V144.29Z" fill="white"/>
<path d="M163.587 144.345C163.587 143.049 163.586 141.753 163.588 140.457C163.588 139.972 163.592 139.969 164.051 139.966C164.525 139.963 165 139.981 165.474 139.96C165.772 139.947 165.844 140.071 165.838 140.344C165.824 141.019 165.834 141.694 165.834 142.369C165.834 144.322 165.836 146.275 165.832 148.228C165.832 148.622 165.824 148.628 165.451 148.633C164.941 148.639 164.429 148.622 163.919 148.639C163.648 148.648 163.58 148.542 163.582 148.287C163.592 146.973 163.587 145.659 163.587 144.345H163.587Z" fill="white"/>
<path d="M155.683 137.568C155.653 138.446 155.104 138.901 154.31 138.934C153.564 138.964 152.919 138.282 152.936 137.531C152.952 136.802 153.589 136.169 154.309 136.168C155.068 136.166 155.697 136.807 155.684 137.569L155.683 137.568Z" fill="white"/>
<path d="M166.084 137.564C166.083 138.318 165.431 138.955 164.677 138.939C163.931 138.923 163.327 138.315 163.335 137.567C163.345 136.728 163.905 136.207 164.69 136.174C165.438 136.143 166.084 136.811 166.084 137.564V137.564Z" fill="white"/>
<path d="M190.798 173.434C190.999 173.434 191.2 173.426 191.401 173.436C191.535 173.443 191.721 173.374 191.778 173.559C191.831 173.731 191.836 173.925 191.775 174.097C191.723 174.245 191.561 174.207 191.441 174.202C191.226 174.193 191.156 174.289 191.16 174.495C191.17 174.951 191.148 175.408 191.168 175.864C191.181 176.195 190.967 176.146 190.77 176.145C190.577 176.144 190.357 176.2 190.372 175.868C190.39 175.449 190.367 175.029 190.378 174.609C190.385 174.36 190.354 174.2 190.038 174.192C189.73 174.183 189.727 174.114 189.733 173.713C189.737 173.441 189.888 173.428 190.087 173.432C190.325 173.437 190.562 173.433 190.799 173.433L190.798 173.434Z" fill="#25306B"/>
<path d="M108.122 41V128.786C108.374 128.723 108.63 128.755 108.885 128.755C137.701 128.753 166.518 128.753 195.335 128.755C195.516 128.755 195.697 128.776 195.878 128.786V41H108.122Z" fill="#EE2531"/>
<path d="M129.854 117.484C130.021 116.854 130.191 116.225 130.354 115.595C131.102 112.699 131.844 109.801 132.598 106.906C132.757 106.299 132.604 106.339 133.359 106.339C134.197 106.339 135.035 106.339 135.902 106.339C135.827 106.94 135.631 107.47 135.481 108.008C134.254 112.417 133.015 116.823 131.779 121.23C131.754 121.318 131.717 121.403 131.702 121.492C131.67 121.682 131.579 121.769 131.372 121.768C130.386 121.759 129.4 121.757 128.414 121.768C128.159 121.771 128.121 121.604 128.07 121.428C127.845 120.639 127.623 119.849 127.397 119.06C126.75 116.798 126.101 114.537 125.455 112.275C125.41 112.119 125.393 111.952 125.234 111.779C125 112.598 124.774 113.381 124.552 114.165C123.881 116.533 123.212 118.901 122.54 121.269C122.4 121.764 122.395 121.764 121.878 121.765C121.057 121.766 120.236 121.766 119.414 121.765C118.947 121.764 118.943 121.763 118.821 121.33C117.776 117.607 116.733 113.885 115.69 110.161C115.38 109.055 115.077 107.947 114.766 106.841C114.726 106.7 114.677 106.565 114.681 106.431C114.794 106.297 114.929 106.341 115.048 106.34C115.833 106.337 116.618 106.336 117.403 106.339C117.825 106.34 117.83 106.343 117.94 106.768C118.501 108.939 119.059 111.111 119.618 113.283C119.95 114.572 120.282 115.86 120.614 117.148C120.65 117.286 120.679 117.427 120.804 117.579C121.036 116.763 121.262 115.977 121.484 115.189C122.269 112.398 123.052 109.606 123.838 106.816C123.971 106.34 123.974 106.34 124.456 106.338C124.949 106.337 125.441 106.338 125.935 106.338C126.572 106.338 126.575 106.338 126.742 106.925C127.437 109.381 128.131 111.838 128.826 114.293C129.128 115.362 129.433 116.43 129.737 117.499C129.775 117.494 129.814 117.488 129.853 117.484L129.854 117.484Z" fill="white"/>
<path d="M126.863 57.337C126.657 57.2658 126.454 57.2981 126.256 57.2976C125.07 57.2943 123.884 57.2987 122.697 57.2937C122.302 57.2921 122.293 57.2828 122.29 56.9025C122.282 56.2455 122.297 55.5879 122.283 54.9309C122.277 54.6629 122.382 54.5637 122.637 54.5889C122.709 54.596 122.782 54.5889 122.855 54.5884C125.082 54.5884 127.308 54.5867 129.534 54.5878C130.031 54.5878 130.029 54.5922 130.036 55.098C130.048 56.0307 130.035 56.9622 129.792 57.8708C129.157 60.2506 127.676 61.8885 125.362 62.7017C123.293 63.4294 121.17 63.4157 119.153 62.5636C116.088 61.2688 114.396 58.9092 114.235 55.5517C114.068 52.0715 115.955 49.0565 119.09 47.7639C122.107 46.5189 126.012 47.1408 128.315 49.8029C128.835 50.4031 128.764 50.8939 128.104 51.2753C127.63 51.5487 127.15 51.8112 126.681 52.0929C126.495 52.2036 126.381 52.2244 126.231 52.0211C125.201 50.6205 123.75 50.0933 122.077 50.1235C119.742 50.1657 117.885 51.6748 117.379 53.8996C117.148 54.9155 117.161 55.9342 117.514 56.9211C118.239 58.947 119.75 59.9607 121.838 60.1662C122.732 60.2539 123.622 60.186 124.481 59.8714C125.568 59.4741 126.349 58.7601 126.809 57.6971C126.851 57.5995 126.909 57.5009 126.863 57.3387V57.337Z" fill="white"/>
<path d="M116.239 74.5059C116.239 72.1507 116.239 69.795 116.239 67.4398C116.239 67.3121 116.244 67.1838 116.24 67.0562C116.235 66.877 116.311 66.7827 116.497 66.7877C116.588 66.7904 116.679 66.786 116.77 66.786C118.505 66.786 120.238 66.7756 121.973 66.7893C123.812 66.8041 125.32 67.528 126.361 69.0546C128.36 71.9863 126.92 76.4222 122.85 77.0732C121.871 77.2299 120.883 77.1225 119.898 77.1455C119.207 77.162 119.292 77.0825 119.29 77.7658C119.286 79.0985 119.292 80.4317 119.288 81.7644C119.287 82.1902 119.279 82.1962 118.873 82.1995C118.142 82.2044 117.412 82.2039 116.682 82.1995C116.248 82.1973 116.241 82.1918 116.24 81.7365C116.238 79.8558 116.239 77.9752 116.239 76.0945C116.239 75.5652 116.239 75.0353 116.239 74.5059ZM119.287 71.9556H119.289C119.289 72.6307 119.294 73.3058 119.285 73.981C119.282 74.21 119.357 74.3059 119.598 74.3026C120.419 74.2917 121.242 74.3278 122.06 74.2906C123.336 74.233 124.229 73.2291 124.213 71.9255C124.198 70.6487 123.308 69.698 122.035 69.6454C121.234 69.6125 120.43 69.6465 119.628 69.6333C119.361 69.6289 119.278 69.7276 119.283 69.9846C119.295 70.641 119.287 71.2986 119.287 71.9551V71.9556Z" fill="white"/>
<path d="M160.83 53.0043C160.937 52.6853 160.893 52.4289 160.892 52.1785C160.892 51.9538 160.955 51.8508 161.202 51.8546C161.931 51.8672 162.661 51.8661 163.39 51.8557C163.639 51.8519 163.777 51.9187 163.748 52.1927C163.739 52.2831 163.748 52.3752 163.748 52.4661C163.748 55.7321 163.748 58.998 163.747 62.264C163.747 62.887 163.809 62.8689 163.167 62.8689C162.547 62.8689 161.927 62.8733 161.307 62.8678C160.902 62.864 160.902 62.8574 160.893 62.436C160.888 62.2541 160.885 62.0716 160.875 61.8903C160.873 61.8618 160.839 61.8355 160.804 61.7845C160.624 61.8305 160.529 62.0004 160.401 62.1133C159.97 62.4941 159.487 62.778 158.936 62.9385C156.813 63.5561 154.7 62.9659 153.245 61.1762C151.424 58.935 151.396 54.8192 154.198 52.6316C155.992 51.2316 158.627 51.1757 160.291 52.5286C160.457 52.664 160.614 52.8119 160.831 53.0043H160.83ZM157.833 60.4414C159.562 60.5176 160.905 59.1421 160.893 57.3749C160.881 55.5792 159.615 54.2778 157.844 54.2739C156.094 54.2695 154.797 55.594 154.815 57.3914C154.835 59.3115 156.246 60.5055 157.834 60.4414H157.833Z" fill="white"/>
<path d="M143.509 81.0292C143.377 81.1179 143.326 81.1393 143.292 81.1771C141.846 82.8227 138.754 82.9728 136.878 81.4977C135.499 80.4127 134.738 78.9951 134.614 77.2383C134.481 75.3549 134.989 73.7022 136.362 72.3624C137.779 70.9787 139.475 70.6253 141.363 71.062C142.031 71.2165 142.61 71.5661 143.113 72.0358C143.215 72.1311 143.317 72.2259 143.506 72.4035C143.506 72.0336 143.518 71.7689 143.503 71.5053C143.49 71.2648 143.592 71.1842 143.822 71.1864C144.57 71.1935 145.317 71.193 146.066 71.188C146.27 71.1869 146.374 71.2604 146.359 71.4746C146.352 71.5656 146.359 71.6571 146.359 71.7481C146.359 75.0321 146.36 78.3161 146.358 81.6002C146.358 82.2566 146.408 82.198 145.779 82.1996C145.195 82.2013 144.611 82.1996 144.028 82.2007C143.459 82.2024 143.509 82.2232 143.509 81.6561C143.509 81.4758 143.509 81.296 143.509 81.0292ZM137.453 76.7001C137.455 78.5331 138.686 79.7858 140.484 79.7864C142.222 79.7864 143.5 78.4931 143.506 76.7259C143.512 74.9181 142.244 73.6107 140.482 73.6096C138.687 73.6085 137.451 74.8699 137.453 76.7001H137.453Z" fill="white"/>
<path d="M142.331 58.5369C142.503 59.2959 142.88 59.846 143.507 60.1633C144.626 60.7294 145.784 60.7568 146.94 60.2488C147.158 60.1529 147.345 60.0027 147.52 59.8411C147.878 59.5112 147.879 59.5101 148.279 59.7392C148.77 60.0203 149.259 60.3041 149.747 60.5891C150.161 60.8302 150.163 60.8346 149.847 61.216C149.228 61.964 148.473 62.5223 147.545 62.8254C145.981 63.3355 144.413 63.3109 142.873 62.7569C141.565 62.2867 140.578 61.4012 139.96 60.1584C139.08 58.3851 139.048 56.5516 139.878 54.7652C140.931 52.4987 143.074 51.3891 145.667 51.571C148.583 51.7754 150.888 54.4304 150.669 57.6684C150.598 58.7166 150.747 58.5292 149.751 58.5336C147.487 58.5435 145.224 58.5369 142.96 58.5369C142.764 58.5369 142.569 58.5369 142.33 58.5369H142.331ZM147.8 56.3061C147.702 55.711 147.451 55.2195 147.02 54.8331C146.107 54.0166 145.047 53.964 143.947 54.3252C143.175 54.5783 142.669 55.1405 142.388 55.9006C142.24 56.3012 142.257 56.3318 142.68 56.3329C144.283 56.3362 145.886 56.3346 147.489 56.3329C147.578 56.3329 147.667 56.3176 147.801 56.3055L147.8 56.3061Z" fill="white"/>
<path d="M164.135 77.9155C164.344 78.6914 164.762 79.2618 165.472 79.5764C166.428 79.9994 167.413 80.0372 168.409 79.7156C168.834 79.578 169.198 79.3353 169.49 78.9972C169.611 78.8563 169.721 78.8492 169.867 78.9353C170.481 79.2947 171.093 79.6569 171.713 80.0065C171.914 80.12 171.904 80.223 171.776 80.3896C171.014 81.3842 170.024 82.0308 168.809 82.319C167.501 82.6292 166.184 82.6133 164.919 82.1711C162.715 81.4001 161.449 79.8038 161.167 77.4935C160.963 75.8222 161.3 74.2566 162.41 72.9228C163.617 71.4724 165.188 70.8904 167.049 70.8838C170.15 70.8729 172.483 73.5207 172.485 76.5209C172.485 76.8124 172.468 77.1045 172.442 77.3954C172.402 77.8519 172.396 77.8568 171.916 77.8574C169.543 77.8596 167.17 77.8574 164.796 77.8601C164.598 77.8601 164.396 77.8283 164.135 77.916L164.135 77.9155ZM169.577 75.6315C169.389 74.2616 168.253 73.4045 166.736 73.4516C165.365 73.4944 164.228 74.4396 164.137 75.6315H169.577Z" fill="white"/>
<path d="M167.692 121.761C166.581 121.761 165.581 121.757 164.581 121.764C164.356 121.766 164.27 121.602 164.159 121.464C163.085 120.125 162.015 118.785 160.938 117.449C160.803 117.281 160.696 117.084 160.504 116.968C160.33 117.04 160.403 117.189 160.403 117.3C160.397 118.615 160.398 119.929 160.398 121.244C160.398 121.799 160.417 121.764 159.906 121.763C159.231 121.762 158.555 121.757 157.88 121.765C157.655 121.768 157.531 121.701 157.553 121.455C157.562 121.365 157.555 121.273 157.555 121.181C157.555 116.434 157.555 111.687 157.555 106.939C157.555 106.286 157.504 106.339 158.133 106.338C158.736 106.337 159.338 106.336 159.941 106.339C160.392 106.342 160.398 106.345 160.399 106.782C160.402 107.987 160.4 109.192 160.4 110.397C160.4 111.968 160.399 113.538 160.398 115.108C160.398 115.194 160.398 115.281 160.398 115.422C160.642 115.339 160.714 115.162 160.816 115.032C161.832 113.741 162.854 112.454 163.847 111.146C164.083 110.834 164.331 110.716 164.715 110.727C165.622 110.751 166.531 110.735 167.428 110.735C167.507 110.932 167.369 111.001 167.296 111.091C166.054 112.622 164.81 114.151 163.566 115.68C163.497 115.765 163.439 115.861 163.361 115.936C163.176 116.114 163.206 116.262 163.366 116.45C163.805 116.963 164.224 117.493 164.651 118.016C165.587 119.16 166.524 120.305 167.46 121.449C167.516 121.517 167.565 121.591 167.692 121.763L167.692 121.761Z" fill="white"/>
<path d="M136.087 96.067C136.071 99.3439 133.55 101.811 130.27 101.84C127.005 101.868 124.376 99.2294 124.445 95.9081C124.513 92.7035 127.039 90.2206 130.291 90.2042C133.484 90.1877 136.186 92.8591 136.086 96.067H136.087ZM133.236 96.0297C133.234 94.2598 132.003 93.0104 130.262 93.0109C128.527 93.012 127.301 94.2702 127.306 96.0451C127.31 97.7739 128.553 99.0414 130.25 99.048C131.974 99.0551 133.239 97.7767 133.236 96.0292V96.0297Z" fill="white"/>
<path d="M135.655 116.217C135.663 112.766 138.52 110.332 141.641 110.44C144.847 110.551 147.353 113.103 147.312 116.324C147.269 119.6 144.685 122.108 141.395 122.066C138.121 122.024 135.606 119.462 135.656 116.217H135.655ZM141.461 119.268C143.179 119.273 144.464 117.981 144.458 116.253C144.451 114.53 143.199 113.239 141.523 113.225C139.787 113.211 138.528 114.461 138.506 116.218C138.485 117.969 139.738 119.264 141.461 119.268V119.268Z" fill="white"/>
<path d="M121.386 95.6311C121.386 97.4389 121.387 99.2472 121.385 101.055C121.385 101.507 121.379 101.512 120.95 101.514C120.22 101.518 119.49 101.519 118.759 101.514C118.351 101.511 118.344 101.504 118.344 101.082C118.341 98.5804 118.343 96.0788 118.343 93.5768C118.343 92.4627 118.343 91.3487 118.342 90.2347C118.341 89.6007 118.374 89.6626 117.791 89.662C116.751 89.6604 115.71 89.6637 114.669 89.6604C114.232 89.6593 114.228 89.6544 114.225 89.2061C114.221 88.5672 114.219 87.9277 114.225 87.2887C114.228 86.9134 114.236 86.9057 114.627 86.9046C116.087 86.9008 117.548 86.903 119.008 86.903C120.98 86.903 122.951 86.903 124.923 86.903C125.051 86.903 125.178 86.9063 125.306 86.9046C125.461 86.903 125.541 86.9693 125.54 87.1315C125.538 87.8986 125.538 88.6653 125.54 89.4324C125.54 89.6374 125.412 89.6626 125.251 89.6615C124.813 89.6593 124.374 89.6609 123.936 89.6615C123.242 89.6615 122.549 89.6593 121.855 89.6626C121.391 89.6648 121.387 89.6692 121.386 90.153C121.385 91.9794 121.386 93.8053 121.385 95.6317L121.386 95.6311Z" fill="white"/>
<path d="M154.544 70.8926C156.422 70.9057 157.986 71.5792 159.142 73.102C159.208 73.1892 159.268 73.2812 159.325 73.3744C159.531 73.7152 159.534 73.724 159.212 73.9163C158.601 74.2807 157.976 74.6221 157.374 74.9991C157.138 75.1471 157.033 75.0862 156.898 74.8791C156.191 73.7881 154.691 73.3914 153.387 73.9229C152.205 74.4046 151.485 75.7022 151.648 77.0431C151.956 79.5786 154.54 80.2361 156.171 79.2427C156.505 79.0394 156.776 78.7736 156.974 78.4366C157.068 78.2755 157.17 78.259 157.33 78.3516C157.992 78.7369 158.655 79.1194 159.326 79.4887C159.555 79.6147 159.523 79.7413 159.405 79.9243C158.65 81.0921 157.6 81.868 156.275 82.2653C153.309 83.1541 150.201 81.6729 149.157 78.8437C148.212 76.2819 148.925 72.9294 152.046 71.4197C152.831 71.04 153.67 70.8849 154.543 70.8937L154.544 70.8926Z" fill="white"/>
<path d="M170.489 48.8066C170.606 49.0105 170.557 49.1952 170.559 49.3716C170.565 50.0653 170.557 50.7585 170.563 51.4523C170.566 51.8452 170.573 51.8528 170.951 51.8572C171.517 51.8638 172.082 51.8687 172.648 51.8539C172.913 51.8468 173.053 51.9 173.045 52.209C173.027 52.9022 173.033 53.596 173.041 54.2897C173.044 54.5264 172.95 54.6075 172.718 54.6031C172.116 54.5927 171.513 54.6097 170.912 54.5971C170.658 54.5916 170.555 54.6662 170.557 54.9358C170.568 56.3775 170.554 57.8198 170.569 59.2609C170.576 59.8741 170.878 60.1958 171.502 60.2687C171.881 60.3125 172.268 60.3109 172.65 60.2922C172.927 60.2785 173.05 60.3432 173.043 60.6457C173.026 61.2841 173.033 61.923 173.041 62.562C173.043 62.7833 172.971 62.8962 172.732 62.9083C171.839 62.9532 170.947 63.0124 170.063 62.8129C168.83 62.5351 168.091 61.7729 167.833 60.5399C167.743 60.1098 167.708 59.6747 167.709 59.2346C167.713 57.8477 167.712 56.4602 167.709 55.0733C167.708 54.607 167.703 54.6053 167.223 54.602C166.839 54.5993 166.456 54.5949 166.073 54.6031C165.864 54.6075 165.779 54.5275 165.78 54.3149C165.786 53.6031 165.787 52.8913 165.778 52.1794C165.776 51.9482 165.857 51.8457 166.096 51.8561C166.369 51.8682 166.643 51.8583 166.917 51.8583C167.446 51.8591 167.71 51.5863 167.71 51.0402C167.71 50.6572 167.715 50.2736 167.708 49.8905C167.706 49.7201 167.767 49.6193 167.935 49.57C168.788 49.3179 169.64 49.0609 170.488 48.8066H170.489Z" fill="white"/>
<path d="M129.287 74.5353C129.287 72.2162 129.287 69.8966 129.287 67.5776C129.287 67.4499 129.29 67.3217 129.287 67.194C129.284 67.0444 129.337 66.9447 129.501 66.9441C130.304 66.9425 131.107 66.9441 131.91 66.9414C132.075 66.9414 132.134 67.0269 132.131 67.1792C132.129 67.3069 132.132 67.4351 132.132 67.5628C132.132 72.2382 132.132 76.9129 132.132 81.5883C132.132 82.3061 132.158 82.1933 131.511 82.1987C130.909 82.2037 130.307 82.2037 129.704 82.1987C129.295 82.1954 129.288 82.19 129.287 81.7675C129.284 79.3569 129.286 76.9464 129.286 74.5358L129.287 74.5353Z" fill="white"/>
<path d="M152.247 112.321C152.736 111.41 153.5 110.869 154.485 110.633C155.14 110.475 155.467 110.734 155.467 111.41C155.467 112.154 155.467 112.898 155.467 113.671C155.056 113.683 154.695 113.664 154.337 113.738C152.926 114.032 152.175 114.894 152.153 116.335C152.13 117.922 152.146 119.51 152.145 121.098C152.145 121.225 152.139 121.354 152.145 121.481C152.157 121.696 152.05 121.766 151.847 121.765C151.099 121.76 150.351 121.756 149.603 121.766C149.358 121.77 149.281 121.663 149.296 121.439C149.305 121.293 149.297 121.147 149.297 121.001C149.297 117.789 149.297 114.577 149.297 111.365C149.297 111.256 149.306 111.145 149.296 111.037C149.275 110.793 149.395 110.726 149.622 110.73C150.351 110.739 151.082 110.742 151.811 110.728C152.084 110.723 152.158 110.836 152.149 111.087C152.135 111.485 152.145 111.884 152.145 112.282C152.179 112.295 152.214 112.308 152.248 112.321H152.247Z" fill="white"/>
<path d="M134.558 53.4698C134.769 53.3503 134.798 53.2172 134.865 53.1125C135.463 52.1744 136.359 51.7623 137.429 51.6499C137.624 51.6297 137.741 51.673 137.739 51.9031C137.735 52.7793 137.735 53.6555 137.742 54.5318C137.743 54.7493 137.652 54.8167 137.446 54.8036C136.926 54.7707 136.434 54.8721 135.961 55.0989C135.169 55.4792 134.732 56.1088 134.627 56.9692C134.583 57.3303 134.567 57.6969 134.565 58.0613C134.558 59.5216 134.564 60.982 134.56 62.4424C134.559 62.855 134.551 62.8605 134.133 62.8638C133.513 62.8687 132.892 62.8692 132.272 62.8627C131.889 62.8588 131.88 62.8511 131.879 62.4659C131.875 61.2609 131.878 60.0565 131.878 58.8515C131.878 56.7341 131.878 54.6167 131.878 52.4988C131.878 52.353 131.878 52.2067 131.881 52.0609C131.884 51.9322 131.947 51.8609 132.083 51.8615C132.831 51.8615 133.579 51.8626 134.327 51.8598C134.535 51.8593 134.558 51.9935 134.558 52.1519C134.558 52.5667 134.558 52.9815 134.558 53.4698H134.558Z" fill="white"/>
<path d="M171.215 122.228C169.791 122.226 168.705 121.148 168.717 119.748C168.729 118.354 169.834 117.273 171.238 117.281C172.623 117.29 173.693 118.353 173.713 119.74C173.732 121.123 172.621 122.231 171.215 122.228L171.215 122.228ZM171.211 121.799C172.402 121.799 173.226 120.97 173.231 119.765C173.236 118.555 172.421 117.71 171.239 117.699C170.036 117.688 169.182 118.547 169.184 119.766C169.186 120.96 170.022 121.799 171.21 121.799H171.211Z" fill="white"/>
<path d="M171.735 119.983C171.908 120.279 172.079 120.575 172.265 120.894C171.942 121.051 171.73 120.981 171.574 120.695C171.486 120.536 171.386 120.383 171.289 120.229C171.222 120.121 171.157 119.99 170.998 120.039C170.858 120.083 170.91 120.22 170.902 120.319C170.893 120.447 170.892 120.575 170.899 120.703C170.911 120.926 170.792 120.977 170.594 120.975C170.394 120.974 170.349 120.87 170.35 120.7C170.353 120.061 170.355 119.423 170.35 118.785C170.348 118.581 170.418 118.481 170.633 118.49C170.87 118.5 171.108 118.485 171.344 118.496C171.692 118.512 171.992 118.621 172.124 118.984C172.253 119.341 172.145 119.624 171.844 119.845C171.802 119.875 171.778 119.928 171.736 119.983H171.735ZM170.902 119.242C170.895 119.437 170.87 119.62 171.155 119.612C171.449 119.603 171.613 119.503 171.623 119.285C171.632 119.064 171.471 118.944 171.185 118.924C170.925 118.906 170.881 119.046 170.902 119.243L170.902 119.242Z" fill="white"/>
</g>
<defs>
<clipPath id="clip0_12541_14046">
<rect width="89" height="150" fill="white" transform="translate(107.5 41)"/>
</clipPath>
</defs>
</svg>
