<svg width="120" height="152" viewBox="0 0 120 152" fill="none" xmlns="http://www.w3.org/2000/svg">
<path d="M102.55 134.471C101.743 136.211 100.817 138.209 98.6244 139.85C96.2729 141.611 93.7958 141.966 92.6001 142.056C85.7786 141.921 78.9586 141.786 72.1372 141.651C75.8515 141.347 78.1972 138.86 79.3429 137.646C82.1815 134.637 82.8701 131.246 83.1344 129.847C83.8272 126.196 83.1258 123.2 82.6515 121.671C80.4815 113.856 78.3129 106.04 76.1429 98.2228C83.1529 98.3671 90.1629 98.51 97.1715 98.6543C99.2329 106.219 101.296 113.784 103.357 121.35C103.724 122.491 104.149 124.197 104.217 126.297C104.341 130.133 103.203 133.064 102.55 134.471Z" fill="#EBECEE"/>
<path d="M92.6 142.341H92.5943L72.1314 141.937C71.9786 141.934 71.8557 141.813 71.8514 141.66C71.8471 141.507 71.9614 141.379 72.1143 141.366C75.7186 141.07 78.0257 138.624 79.1343 137.45C81.9757 134.439 82.6129 131.064 82.8543 129.794C83.3557 127.153 83.1914 124.373 82.3786 121.756C81.0657 117.03 79.7572 112.313 78.4472 107.596L75.8672 98.3C75.8429 98.2129 75.8614 98.12 75.9171 98.0486C75.9729 97.9771 76.06 97.9371 76.1486 97.9386L97.1772 98.37C97.3043 98.3729 97.4143 98.4586 97.4472 98.58L103.633 121.276C104.153 122.893 104.447 124.583 104.503 126.289C104.62 129.884 103.646 132.789 102.81 134.593L102.551 134.473L102.81 134.596C101.983 136.377 101.047 138.396 98.7972 140.08C96.5929 141.731 94.2229 142.221 92.6229 142.341C92.6157 142.341 92.6086 142.341 92.6014 142.341H92.6ZM74.56 141.413L92.5914 141.769C94.1157 141.653 96.3643 141.184 98.4529 139.62C100.587 138.023 101.491 136.073 102.29 134.353V134.35C103.101 132.603 104.044 129.789 103.931 126.306C103.877 124.654 103.593 123.016 103.086 121.437L96.9529 98.9357L76.5214 98.5171L78.9986 107.443C80.3086 112.16 81.6171 116.879 82.9271 121.596C83.7643 124.293 83.9343 127.169 83.4157 129.901C83.1671 131.216 82.5071 134.71 79.5514 137.843C78.6571 138.79 77.0186 140.527 74.5614 141.414L74.56 141.413Z" fill="black"/>
<path d="M112.661 68.5357C112.234 71.22 111.523 75.5272 109.38 80.7986C105.834 89.5214 100.603 95.3757 97.1715 98.6543C90.1629 98.51 83.1529 98.3672 76.1429 98.2229C77.8572 96.7314 80.2958 94.3857 82.7315 91.1243C89.5243 82.0314 91.1429 72.7243 91.8472 68.3743C92.2286 66.0243 92.8243 61.4329 92.4929 55.6286C92.2186 50.82 91.5701 41.2686 85.9586 31.5072C83.5501 27.3186 76.0301 14.24 60.7086 10.7743C58.9415 10.3743 57.2301 10.1386 55.5986 10.0272C63.5672 10.2486 71.5358 10.4714 79.5043 10.6943C84.9315 11.6129 88.8629 13.4872 91.2829 14.8886C99.8972 19.8786 104.053 27.3843 106.691 32.1529C109.541 37.3029 110.91 41.6943 111.424 43.4743C111.993 45.4443 114.747 55.4086 112.661 68.5357Z" fill="#EBECEE"/>
<path d="M97.1714 98.9386H97.1657L76.1371 98.5072C76.0186 98.5043 75.9143 98.43 75.8743 98.3186C75.8343 98.2072 75.8657 98.0829 75.9557 98.0057C78.3786 95.8972 80.5814 93.5243 82.5028 90.9515C89.3971 81.7243 90.9171 72.3357 91.5657 68.3272C92.2371 64.1943 92.4529 59.9257 92.2086 55.6429C91.9686 51.4257 91.4043 41.55 85.7114 31.6472C83.2714 27.4029 75.8443 14.4886 60.6457 11.05C58.9886 10.6757 57.2843 10.4257 55.58 10.3086C55.4243 10.2986 55.3071 10.1657 55.3143 10.01C55.3214 9.85431 55.4471 9.73288 55.6071 9.7386C63.5757 9.96003 71.5443 10.1829 79.5128 10.4057C79.5257 10.4057 79.54 10.4072 79.5528 10.41C83.8386 11.1357 87.8343 12.5586 91.4271 14.6386C100.113 19.67 104.223 27.0972 106.943 32.0115C108.954 35.6457 110.599 39.58 111.7 43.3915C112.717 46.9172 114.876 56.4286 112.944 68.5772C112.56 70.9957 111.843 75.4957 109.646 80.9029C106.9 87.6572 102.77 93.6986 97.37 98.8572C97.3171 98.9086 97.2457 98.9357 97.1728 98.9357L97.1714 98.9386ZM76.88 97.9515L97.0586 98.3657C102.359 93.28 106.414 87.3343 109.114 80.69C111.287 75.3443 111.997 70.8857 112.379 68.49C114.291 56.4543 112.156 47.0415 111.149 43.5529C110.059 39.7815 108.431 35.8872 106.44 32.29C103.751 27.43 99.6871 20.0872 91.1386 15.1343C87.61 13.0915 83.6871 11.6929 79.4757 10.9772C73.1743 10.8015 66.8743 10.6243 60.5728 10.4486C60.6386 10.4629 60.7043 10.4786 60.7714 10.4929C76.2143 13.9857 83.7343 27.0643 86.2057 31.3615C91.9657 41.3815 92.5343 51.3515 92.7771 55.61C93.0243 59.9343 92.8057 64.2429 92.1286 68.4172C91.82 70.3215 91.2457 73.8672 89.8428 78.0586C88.2243 82.8929 85.9086 87.3457 82.96 91.2929C81.1614 93.7015 79.1171 95.9386 76.88 97.95V97.9515Z" fill="black"/>
<path d="M62.5872 85.7314C60.5287 86.8957 57.7972 88.0086 54.4158 88.3014C48.2658 88.8328 43.7172 86.3271 42.1529 85.4371C36.7287 82.35 34.2201 77.8614 32.7958 75.3128C29.4944 69.4043 29.0887 63.98 28.9229 61.3971C28.7572 58.7957 28.4415 52.7528 31.3844 45.9486C33.0215 42.1614 36.3787 34.3971 44.9772 31.1043C54.2587 27.55 62.5672 31.9157 63.3701 32.3543C63.5944 32.4771 63.8144 32.6028 64.0301 32.7314C61.3158 34.3228 58.4444 36.58 55.9487 39.7771C51.0087 46.1028 50.2244 52.6743 49.8987 55.75C49.4929 59.5614 49.2115 68.4086 54.7387 77.1686C57.1887 81.0528 60.0915 83.8243 62.5872 85.7314Z" fill="#CED0D6"/>
<path d="M52.7172 88.66C49.0815 88.66 45.4887 87.6629 42.0115 85.6843C36.5172 82.5571 33.9344 77.9343 32.5458 75.4514C29.1472 69.37 28.7901 63.7957 28.6372 61.4143C28.4887 59.0686 28.0915 52.84 31.1215 45.8343C32.7572 42.0486 36.163 34.1729 44.8744 30.8371C54.1958 27.2671 62.5815 31.5971 63.5058 32.1029C63.7287 32.2243 63.953 32.3529 64.1744 32.4857C64.2615 32.5371 64.3144 32.6314 64.3144 32.7314C64.3144 32.8329 64.2601 32.9257 64.173 32.9771C61.0458 34.8114 58.3544 37.1571 56.173 39.9529C51.1815 46.3457 50.4815 52.9571 50.1815 55.78C49.7172 60.1371 49.7244 68.6886 54.9787 77.0157C57.033 80.2729 59.6515 83.1286 62.7587 85.5043C62.8344 85.5629 62.8772 85.6557 62.8701 85.7514C62.863 85.8471 62.8087 85.9329 62.7258 85.98C60.1101 87.46 57.3215 88.3357 54.4387 88.5857C53.863 88.6357 53.2887 88.66 52.7158 88.66H52.7172ZM52.5258 30.0071C50.2187 30.0071 47.6872 30.3714 45.0801 31.37C36.593 34.62 33.253 42.3471 31.6472 46.0614C28.6715 52.9414 29.0615 59.0714 29.2087 61.3786C29.3587 63.72 29.7101 69.2043 33.0458 75.1729C34.5015 77.7786 36.9401 82.14 42.2944 85.1886C46.2158 87.42 50.2858 88.37 54.3915 88.0171C57.0544 87.7871 59.6344 87.0043 62.0687 85.6914C59.0572 83.3286 56.5115 80.5143 54.4972 77.3214C49.1501 68.8471 49.143 60.15 49.6144 55.72C49.9187 52.8486 50.6315 46.1229 55.723 39.6014C57.8515 36.8757 60.4544 34.5671 63.4658 32.7357C63.3872 32.6914 63.3101 32.6486 63.2315 32.6057C62.5887 32.2543 58.2515 30.0086 52.5244 30.0086L52.5258 30.0071Z" fill="black"/>
<path d="M82.7316 91.1243C89.5245 82.0314 91.143 72.7243 91.8473 68.3743C92.2287 66.0243 92.8245 61.4329 92.493 55.6286C92.2187 50.82 91.5702 41.2686 85.9587 31.5071C83.5502 27.3186 76.0302 14.24 60.7087 10.7743C58.9416 10.3743 57.2302 10.1386 55.5987 10.0271C47.9045 9.50143 41.9616 11.7271 40.0559 12.4686C25.093 18.2914 19.1587 32.2729 16.9845 37.3971C12.4373 48.1071 12.7959 57.5243 13.0316 62.3243C13.2773 67.3586 13.783 75.7771 18.7587 85.0743C20.453 88.24 24.4359 95.4729 32.9573 101.236C40.4645 106.313 47.7973 107.747 51.673 108.227C54.2816 115.397 56.8902 122.569 59.4987 129.74C59.7259 130.847 60.1659 132.467 61.0845 134.257C61.9302 135.904 63.2673 138.511 66.2202 140.2C67.0573 140.677 69.2445 141.889 72.1373 141.651C75.8516 141.347 78.1973 138.86 79.343 137.646C82.1816 134.637 82.8702 131.246 83.1345 129.847C83.8273 126.196 83.1259 123.2 82.6516 121.671C80.4816 113.856 78.313 106.04 76.143 98.2229C77.8573 96.7314 80.2959 94.3857 82.7316 91.1243ZM76.2373 64.6643C75.7273 67.6457 74.1173 77.0514 66.033 83.38C65.2559 83.9871 64.1045 84.8729 62.5873 85.7314C60.5287 86.8957 57.7973 88.0086 54.4159 88.3014C48.2659 88.8329 43.7173 86.3271 42.153 85.4371C36.7287 82.35 34.2202 77.8614 32.7959 75.3129C29.4945 69.4043 29.0887 63.98 28.923 61.3971C28.7573 58.7957 28.4416 52.7529 31.3845 45.9486C33.0216 42.1614 36.3787 34.3971 44.9773 31.1043C54.2587 27.55 62.5673 31.9157 63.3702 32.3543C63.5945 32.4771 63.8145 32.6029 64.0302 32.7314C70.4873 36.5729 72.8616 42.7514 74.463 46.9157C75.5602 49.77 77.6544 56.39 76.2373 64.6643Z" fill="white"/>
<path d="M71.3973 141.967C68.7445 141.967 66.7673 140.84 66.0788 140.449C63.0545 138.719 61.663 136.01 60.8316 134.391C60.093 132.951 59.5516 131.414 59.223 129.819L51.4645 108.49C44.773 107.633 38.3216 105.21 32.7973 101.473C24.0416 95.5515 20.0202 88.0386 18.5073 85.21C13.3973 75.6614 12.9745 66.9943 12.7473 62.3386C12.5402 58.13 12.0573 48.2757 16.723 37.2857C18.953 32.03 24.8759 18.07 39.9545 12.2029C45.0759 10.21 50.3473 9.38145 55.6202 9.74288C57.3545 9.86145 59.0888 10.1143 60.773 10.4957C76.2159 13.9886 83.7359 27.0672 86.2073 31.3643C91.9673 41.3843 92.5359 51.3543 92.7788 55.6129C93.0259 59.9372 92.8073 64.2457 92.1302 68.42C91.4745 72.47 89.9373 81.9557 82.9616 91.2957C81.0516 93.8529 78.8673 96.2157 76.4673 98.32L78.9987 107.443C80.3088 112.16 81.6173 116.879 82.9273 121.596C83.7645 124.293 83.9345 127.169 83.4159 129.901C83.1916 131.09 82.5073 134.71 79.5516 137.843C78.393 139.071 75.9845 141.624 72.1616 141.937C71.9016 141.959 71.6473 141.969 71.3988 141.969L71.3973 141.967ZM53.2173 10.2315C48.8187 10.2315 44.4373 11.07 40.1602 12.7343C25.3073 18.5143 19.4516 32.3129 17.2488 37.5086C12.6345 48.3772 13.0959 57.7886 13.3188 62.31C13.543 66.9215 13.963 75.5029 19.013 84.9386C20.5088 87.7329 24.4816 95.1557 33.1202 100.999C38.6173 104.716 45.0459 107.117 51.7116 107.943C51.8188 107.956 51.9087 108.027 51.9445 108.129L59.7702 129.641C59.7745 129.654 59.7788 129.669 59.7816 129.681C60.1002 131.234 60.6245 132.729 61.3416 134.126C62.1973 135.793 63.4873 138.306 66.3645 139.951C67.0802 140.359 69.2573 141.6 72.1159 141.366C75.7202 141.07 78.0273 138.624 79.1359 137.45C81.9773 134.439 82.6145 131.064 82.8559 129.794C83.3573 127.153 83.193 124.373 82.3802 121.756C81.0673 117.03 79.7588 112.313 78.4488 107.596L75.8688 98.3C75.8388 98.1943 75.873 98.08 75.9559 98.0086C78.3788 95.9 80.5816 93.5272 82.503 90.9543C89.3973 81.7272 90.9173 72.3386 91.5659 68.33C92.2373 64.1972 92.453 59.9286 92.2088 55.6457C91.9688 51.4286 91.4045 41.5529 85.7116 31.65C83.2716 27.4057 75.8445 14.4915 60.6459 11.0529C58.9888 10.6786 57.2845 10.4286 55.5802 10.3115C54.793 10.2572 54.0045 10.2315 53.2173 10.2315ZM52.7173 88.66C49.0816 88.66 45.4888 87.6629 42.0116 85.6843C36.5173 82.5572 33.9345 77.9343 32.5459 75.4514C29.1473 69.37 28.7902 63.7957 28.6373 61.4143C28.4888 59.0686 28.0916 52.84 31.1216 45.8343C32.7573 42.0486 36.163 34.1729 44.8745 30.8372C54.1973 27.2672 62.5816 31.5972 63.5059 32.1029C63.7288 32.2243 63.953 32.3529 64.1745 32.4857C70.7145 36.3757 73.1288 42.6529 74.7259 46.8072C76.2602 50.7986 77.8145 57.14 76.5173 64.7115C75.9888 67.8015 74.3802 77.2057 66.2073 83.6043C65.5502 84.1186 64.3259 85.0743 62.7259 85.9786C60.1102 87.4586 57.3216 88.3357 54.4388 88.5843C53.863 88.6343 53.2888 88.6586 52.7159 88.6586L52.7173 88.66ZM52.5259 30.0072C50.2188 30.0072 47.6873 30.3715 45.0802 31.37C36.593 34.62 33.253 42.3472 31.6473 46.0615C28.6716 52.9415 29.0616 59.0714 29.2088 61.3786C29.3588 63.72 29.7102 69.2043 33.0459 75.1729C34.5016 77.7786 36.9402 82.14 42.2945 85.1886C46.2159 87.42 50.2859 88.37 54.3916 88.0172C57.193 87.7743 59.903 86.9214 62.4473 85.4829C64.0102 84.5986 65.2116 83.66 65.8573 83.1557C73.8559 76.8943 75.4359 67.6543 75.9559 64.6172C77.2316 57.1729 75.703 50.9386 74.1959 47.0186C72.6245 42.9329 70.253 36.7672 63.883 32.9772C63.6673 32.8486 63.4488 32.7229 63.2316 32.6057C62.5888 32.2543 58.2516 30.0086 52.5245 30.0086L52.5259 30.0072Z" fill="black"/>
<path d="M50.7515 137.362C50.7515 137.362 50.7529 137.362 50.7543 137.362C50.7529 137.363 50.7515 137.363 50.7515 137.363V137.362Z" fill="white"/>
<path d="M50.7515 137.649C50.5944 137.649 50.4658 137.52 50.4658 137.363C50.4658 137.247 50.5358 137.143 50.6415 137.099C50.6587 137.091 50.6772 137.086 50.6958 137.083C50.8301 137.054 50.9715 137.13 51.0201 137.259C51.063 137.369 51.033 137.493 50.9472 137.573C50.8944 137.621 50.823 137.65 50.7515 137.65V137.649Z" fill="black"/>
<path d="M73.8873 119.25C72.8002 121.089 70.9187 124.057 68.4087 126.961C66.4787 129.193 65.0187 130.417 63.5702 131.366C63.1073 131.67 62.7116 131.901 62.4387 132.056C57.3845 134.351 53.6145 136.063 51.853 136.863C53.1216 136.254 54.3973 135.517 55.6573 134.636C61.0716 130.844 63.7845 126.03 64.9745 123.529C67.9459 122.103 70.9173 120.676 73.8873 119.251V119.25Z" fill="#FF444F"/>
<path d="M51.8531 137.147C51.7459 137.147 51.6431 137.086 51.5945 136.983C51.5288 136.841 51.5888 136.673 51.7302 136.604C53.0316 135.98 54.2973 135.239 55.4945 134.4C60.4416 130.936 63.2402 126.509 64.7173 123.404C64.7459 123.346 64.7931 123.297 64.8516 123.27L65.2359 123.086C68.0788 121.721 70.9216 120.357 73.7645 118.994C73.8788 118.94 74.0131 118.966 74.0988 119.059C74.1831 119.151 74.1988 119.289 74.1345 119.397C72.4231 122.293 70.5702 124.901 68.6259 127.15C66.8802 129.167 65.4159 130.5 63.7273 131.606C63.3516 131.853 62.9659 132.089 62.5802 132.306C62.5731 132.31 62.5659 132.313 62.5573 132.317C58.6731 134.081 55.5473 135.5 53.5088 136.426L51.9716 137.124C51.9331 137.141 51.8931 137.15 51.8531 137.15V137.147ZM65.1888 123.741C63.7188 126.803 61.0016 131.087 56.2873 134.536C57.9845 133.766 60.0145 132.843 62.3088 131.801C62.6802 131.591 63.0516 131.366 63.4131 131.127C65.0545 130.051 66.4831 128.75 68.1916 126.776C69.9302 124.766 71.5959 122.463 73.1502 119.921C70.5945 121.147 68.0373 122.374 65.4816 123.601L65.1873 123.743L65.1888 123.741Z" fill="black"/>
<path d="M73.8872 119.25C70.9158 120.674 67.9444 122.1 64.9744 123.527C63.5615 119.939 59.7629 111.76 51.0001 105.7C47.4672 103.259 37.3344 96.2529 24.9315 99.52C23.2801 99.9543 21.7515 100.529 20.3401 101.199C23.5129 99.6329 26.6858 98.0686 29.8587 96.5043C33.1144 95.3829 40.0687 93.5215 48.3129 95.5472C57.2201 97.7386 62.5872 103.229 65.4815 106.267C70.0544 111.069 72.5487 116.003 73.8872 119.25Z" fill="#FF535E"/>
<path d="M64.9743 123.813C64.9386 123.813 64.9029 123.806 64.87 123.793C64.7957 123.764 64.7372 123.706 64.7086 123.631C62.7072 118.55 58.6757 111.354 50.8372 105.934C49.0343 104.689 45.6814 102.371 41.1914 100.736C35.6886 98.7315 30.2429 98.4158 25.0043 99.7943C23.45 100.204 21.9214 100.763 20.4629 101.454C20.3214 101.521 20.1514 101.461 20.0829 101.32C20.0143 101.179 20.0729 101.009 20.2143 100.939C23.2514 99.44 26.2872 97.9429 29.3243 96.4458L29.7329 96.2443C29.7443 96.2386 29.7543 96.2343 29.7657 96.23C34.0457 94.7558 40.75 93.3915 48.3814 95.2658C57.5486 97.52 63.0472 103.293 65.6886 106.067C69.2857 109.844 72.1329 114.241 74.1514 119.139C74.21 119.279 74.1472 119.44 74.0114 119.506C71.1686 120.869 68.3257 122.233 65.4829 123.597L65.0972 123.781C65.0586 123.8 65.0157 123.81 64.9729 123.81L64.9743 123.813ZM31.4957 98.3815C34.7529 98.3815 38.06 98.9886 41.3872 100.2C45.9472 101.86 49.3386 104.204 51.16 105.463C58.9729 110.866 63.0572 118 65.1257 123.137L65.2343 123.084C67.9957 121.759 70.7572 120.433 73.5186 119.11C71.5343 114.38 68.7614 110.127 65.2743 106.464C62.67 103.73 57.25 98.0386 48.2443 95.8243C40.7586 93.9843 34.1772 95.32 29.9686 96.7672L29.5772 96.96C28.0686 97.7043 26.5586 98.4486 25.05 99.1929C27.17 98.6515 29.3214 98.3815 31.4957 98.3815Z" fill="black"/>
<path d="M45.1455 121.287C45.0455 122.52 44.7813 125.793 42.0413 127.947C39.1441 130.223 35.6627 129.537 35.0227 129.41C31.2241 128.661 29.2184 125.701 28.3927 124.483C26.6741 121.946 26.4084 119.524 26.3627 119.05C26.2755 118.15 26.1084 116.171 27.0798 113.944C27.4255 113.151 28.4398 110.824 30.9613 109.554C34.297 107.874 37.6813 109.349 38.427 109.673C41.457 110.993 42.8598 113.466 43.5027 114.6C44.087 115.63 45.4098 118.036 45.1441 121.289L45.1455 121.287Z" fill="white"/>
<path d="M37.0142 129.893C36.2128 129.893 35.5057 129.797 34.9671 129.69C31.0514 128.919 29.0228 125.921 28.1571 124.643C26.5371 122.25 26.1642 119.953 26.0785 119.077C26.0014 118.283 25.7971 116.171 26.8185 113.829C27.1657 113.031 28.2214 110.613 30.8342 109.299C33.0642 108.176 35.8014 108.216 38.5428 109.411C41.6571 110.769 43.0714 113.259 43.7514 114.456C44.2885 115.403 45.7085 117.907 45.4314 121.311L45.1471 121.289L45.4314 121.313C45.3285 122.579 45.0557 125.941 42.2185 128.173C40.4914 129.53 38.5742 129.894 37.0142 129.894V129.893ZM34.3699 109.044C33.2057 109.044 32.1028 109.299 31.0914 109.809C28.6628 111.03 27.6699 113.307 27.3442 114.056C26.3814 116.264 26.5685 118.197 26.6485 119.021C26.7299 119.854 27.0842 122.039 28.6314 124.321C29.4585 125.543 31.3942 128.403 35.0799 129.129C36.5699 129.424 39.4314 129.634 41.8657 127.721C44.5071 125.644 44.7642 122.463 44.8614 121.264C45.1242 118.034 43.7671 115.64 43.2557 114.74C42.6042 113.593 41.2542 111.214 38.3142 109.934C36.9542 109.341 35.6271 109.044 34.3699 109.044Z" fill="black"/>
<path d="M51 105.7C47.4671 103.259 37.3342 96.2529 24.9314 99.5201C23.28 99.9543 21.7514 100.529 20.34 101.199C20.2985 101.219 20.2571 101.24 20.2157 101.26C11.6257 105.4 7.44567 113.136 6.56567 114.837C7.87567 118.117 10.3128 123.044 14.8085 127.827C17.8271 131.04 24.3185 137.943 35.0528 139.381C38.03 139.781 44.2271 140.147 50.75 137.361C50.75 137.361 50.7514 137.36 50.7528 137.36C50.7685 137.354 50.7842 137.346 50.8014 137.337C50.93 137.279 51.2885 137.117 51.8514 136.86C53.12 136.251 54.3957 135.514 55.6557 134.633C61.07 130.841 63.7828 126.027 64.9728 123.526C63.56 119.937 59.7614 111.759 50.9985 105.699L51 105.7ZM45.1457 121.287C45.0457 122.52 44.7814 125.793 42.0414 127.947C39.1442 130.223 35.6628 129.537 35.0228 129.41C31.2242 128.661 29.2185 125.701 28.3928 124.483C26.6742 121.946 26.4085 119.524 26.3628 119.05C26.2757 118.15 26.1085 116.171 27.08 113.944C27.4257 113.151 28.44 110.824 30.9614 109.554C34.2971 107.874 37.6814 109.349 38.4271 109.673C41.4571 110.993 42.86 113.466 43.5028 114.6C44.0871 115.63 45.41 118.036 45.1442 121.289L45.1457 121.287Z" fill="#FF7E88"/>
<path d="M39.1729 139.939C37.5058 139.939 36.0829 139.81 35.0158 139.667C24.1758 138.214 17.7086 131.333 14.6001 128.024C11.0515 124.249 8.25864 119.849 6.30006 114.944C6.27006 114.867 6.27292 114.78 6.31149 114.707C7.77435 111.879 12.0458 104.881 20.0915 101.004L20.2115 100.944C21.7072 100.234 23.2672 99.6643 24.8572 99.2458C30.2101 97.8358 35.7701 98.1586 41.3858 100.203C45.9458 101.863 49.3372 104.207 51.1586 105.466C51.1586 105.466 51.1615 105.466 51.1615 105.467C59.1172 110.969 63.2086 118.269 65.2386 123.424C65.2672 123.499 65.2643 123.58 65.2315 123.651C63.7258 126.817 60.8701 131.334 55.8201 134.87C54.5986 135.726 53.3043 136.483 51.9758 137.12C51.5815 137.3 51.2901 137.433 51.1044 137.517L50.9072 137.607C50.8943 137.613 50.8815 137.619 50.8686 137.624C50.8658 137.624 50.8643 137.626 50.8615 137.627C46.5929 139.45 42.4186 139.939 39.1715 139.939H39.1729ZM6.88006 114.853C8.81006 119.641 11.5472 123.94 15.0172 127.633C18.0801 130.893 24.4543 137.674 35.0915 139.1C38.1758 139.514 44.2929 139.806 50.6201 137.109C50.6272 137.106 50.6343 137.101 50.6415 137.099C50.6458 137.097 50.6486 137.096 50.6529 137.094L50.8686 136.996C51.0543 136.911 51.3443 136.78 51.7344 136.603C53.0301 135.98 54.2972 135.239 55.4929 134.401C60.3815 130.979 63.1715 126.616 64.6615 123.517C62.6443 118.443 58.6143 111.314 50.8358 105.936H50.8343C49.0329 104.691 45.6801 102.374 41.1901 100.739C35.6872 98.7343 30.2415 98.4186 25.0029 99.7972C23.4486 100.207 21.9201 100.766 20.4615 101.457L20.3429 101.517C12.5558 105.27 8.37006 112.006 6.87864 114.854L6.88006 114.853ZM37.0144 129.893C36.2129 129.893 35.5058 129.797 34.9672 129.69C31.0515 128.919 29.0229 125.921 28.1572 124.643C26.5372 122.25 26.1644 119.953 26.0786 119.077C26.0015 118.283 25.7972 116.171 26.8186 113.829C27.1658 113.031 28.2215 110.613 30.8343 109.299C33.0643 108.176 35.8015 108.216 38.5429 109.411C41.6572 110.769 43.0715 113.259 43.7515 114.456C44.2886 115.403 45.7086 117.907 45.4315 121.311L45.1472 121.289L45.4315 121.313C45.3286 122.579 45.0558 125.941 42.2186 128.173C40.4915 129.53 38.5743 129.894 37.0158 129.894L37.0144 129.893ZM34.3701 109.044C33.2058 109.044 32.1029 109.299 31.0915 109.809C28.6629 111.03 27.6701 113.307 27.3444 114.056C26.3815 116.264 26.5686 118.197 26.6486 119.021C26.7301 119.854 27.0843 122.039 28.6315 124.321C29.4586 125.543 31.3944 128.403 35.0801 129.129C36.5701 129.424 39.4315 129.634 41.8658 127.721C44.5072 125.644 44.7643 122.463 44.8615 121.264C45.1243 118.034 43.7672 115.64 43.2558 114.74C42.6044 113.593 41.2529 111.214 38.3144 109.934C36.9544 109.341 35.6272 109.044 34.3701 109.044Z" fill="black"/>
<path d="M43.5041 114.6C44.0884 115.63 45.4113 118.036 45.1455 121.289C45.0455 122.521 44.7813 125.794 42.0413 127.949C39.1441 130.224 35.6627 129.539 35.0227 129.411C31.2241 128.663 29.2184 125.703 28.3927 124.484C26.6741 121.947 26.4084 119.526 26.3627 119.051C26.2755 118.151 26.1084 116.173 27.0798 113.946C27.4255 113.153 28.4398 110.826 30.9613 109.556C34.297 107.876 37.6813 109.35 38.427 109.674C41.457 110.994 42.8598 113.467 43.5027 114.601L43.5041 114.6Z" fill="#FF7E88"/>
<path d="M37.0142 129.893C36.2128 129.893 35.5057 129.797 34.9671 129.69C31.0514 128.919 29.0228 125.921 28.1571 124.643C26.5371 122.25 26.1642 119.953 26.0785 119.077C26.0014 118.283 25.7971 116.171 26.8185 113.829C27.1657 113.031 28.2214 110.613 30.8342 109.299C33.0642 108.176 35.8014 108.216 38.5428 109.411C41.6571 110.769 43.0714 113.259 43.7514 114.456L43.7528 114.459C44.2871 115.401 45.7085 117.907 45.4314 121.31C45.3285 122.577 45.0557 125.94 42.2185 128.171C40.4914 129.529 38.5742 129.893 37.0142 129.893ZM34.3699 109.044C33.2057 109.044 32.1028 109.299 31.0914 109.809C28.6628 111.03 27.6699 113.307 27.3442 114.056C26.3814 116.264 26.5685 118.197 26.6485 119.021C26.7299 119.854 27.0842 122.039 28.6314 124.321C29.4585 125.543 31.3942 128.403 35.0799 129.129C36.5699 129.424 39.4314 129.634 41.8657 127.721C44.5071 125.644 44.7642 122.463 44.8614 121.264C45.1242 118.034 43.7671 115.64 43.2557 114.74L43.2542 114.737C42.6042 113.594 41.2542 111.214 38.3142 109.934C36.9542 109.341 35.6271 109.044 34.3699 109.044Z" fill="black"/>
<path d="M51.8527 136.861C51.5027 137.031 51.1513 137.19 50.8027 137.339C50.9313 137.28 51.2899 137.119 51.8527 136.861Z" fill="white"/>
<path d="M50.8029 137.626C50.6929 137.626 50.5886 137.561 50.5414 137.456C50.4786 137.313 50.5414 137.146 50.6843 137.08L50.8686 136.996C51.0543 136.911 51.3443 136.78 51.7343 136.603C51.8757 136.539 52.0443 136.6 52.1114 136.741C52.1786 136.883 52.1186 137.051 51.9771 137.12C51.6343 137.286 51.2771 137.449 50.9143 137.603C50.8771 137.619 50.84 137.626 50.8029 137.626Z" fill="black"/>
</svg>
