<svg width="120" height="152" viewBox="0 0 120 152" fill="none" xmlns="http://www.w3.org/2000/svg">
<path d="M70.0856 120.196V132.589C70.0856 134.253 68.7713 135.817 66.4599 137.179C61.447 140.134 51.7427 142.137 40.5913 142.137C29.4399 142.137 19.7399 140.134 14.727 137.179C12.4141 135.817 11.0999 134.253 11.0999 132.589V120.196C11.0999 121.751 12.2499 123.22 14.287 124.517C19.157 127.617 29.107 129.743 40.5913 129.743C52.0756 129.743 62.0256 127.617 66.897 124.517C68.9356 123.22 70.0841 121.751 70.0841 120.196H70.0856Z" fill="#FF7E88"/>
<path d="M40.5913 142.424C29.7756 142.424 19.8099 140.509 14.5813 137.426C12.117 135.974 10.8127 134.303 10.8127 132.59V120.197C10.8127 120.04 10.9413 119.911 11.0985 119.911C11.2556 119.911 11.3842 120.04 11.3842 120.197C11.3842 121.594 12.4413 123.006 14.4399 124.277C19.4599 127.473 29.4799 129.459 40.5913 129.459C51.7027 129.459 61.7227 127.473 66.7442 124.277C68.7427 123.004 69.7999 121.594 69.7999 120.197C69.7999 120.04 69.9285 119.911 70.0856 119.911C70.2427 119.911 70.3713 120.04 70.3713 120.197V132.59C70.3713 134.303 69.0685 135.974 66.6042 137.426C61.3756 140.509 51.4085 142.424 40.5913 142.424ZM11.3856 122.164V132.59C11.3856 134.089 12.5913 135.591 14.8727 136.934C20.0185 139.969 29.8727 141.853 40.5927 141.853C51.3127 141.853 61.1699 139.969 66.3156 136.934C68.5956 135.591 69.8013 134.089 69.8013 132.59V122.164C69.2627 123.069 68.3442 123.937 67.0527 124.759C61.9442 128.01 51.8056 130.029 40.5927 130.029C29.3799 130.029 19.2413 128.009 14.1356 124.759C12.8442 123.937 11.9256 123.069 11.387 122.164H11.3856Z" fill="black"/>
<path d="M70.0856 120.196C70.0856 121.751 68.9356 123.22 66.8985 124.517C62.027 127.617 52.0756 129.743 40.5927 129.743C29.1099 129.743 19.1585 127.617 14.2885 124.517C12.2499 123.22 11.1013 121.751 11.1013 120.196C11.1013 114.921 24.3056 110.647 40.5927 110.647C56.8799 110.647 70.087 114.923 70.087 120.196H70.0856Z" fill="#FF444F"/>
<path d="M40.5914 130.029C29.3785 130.029 19.2399 128.009 14.1342 124.759C11.9314 123.356 10.8142 121.821 10.8142 120.196C10.8142 117.511 13.9528 115.017 19.6499 113.171C25.2485 111.359 32.6856 110.361 40.5914 110.361C48.4971 110.361 55.9371 111.36 61.5342 113.171C67.2328 115.016 70.3699 117.511 70.3699 120.196C70.3699 121.821 69.2528 123.356 67.0499 124.759C61.9414 128.01 51.8028 130.029 40.5899 130.029H40.5914ZM40.5914 110.933C32.7428 110.933 25.3685 111.921 19.8256 113.716C14.4614 115.453 11.3856 117.814 11.3856 120.196C11.3856 121.593 12.4428 123.004 14.4414 124.276C19.4614 127.471 29.4814 129.457 40.5928 129.457C51.7042 129.457 61.7242 127.471 66.7456 124.276C68.7442 123.003 69.8013 121.593 69.8013 120.196C69.8013 117.814 66.7242 115.453 61.3614 113.716C55.8185 111.921 48.4428 110.933 40.5942 110.933H40.5914Z" fill="black"/>
<path d="M59.6428 104.049V119.276C59.6428 120.234 58.7942 121.136 57.3013 121.92C54.0628 123.623 47.7956 124.777 40.5928 124.777C33.3899 124.777 27.1242 123.624 23.887 121.92C22.3928 121.136 21.5442 120.234 21.5442 119.276V104.049C21.5442 104.944 22.287 105.79 23.6028 106.539C26.7485 108.324 33.1756 109.549 40.5928 109.549C48.0099 109.549 54.437 108.324 57.5842 106.539C58.9013 105.791 59.6428 104.946 59.6428 104.049Z" fill="#FF7E88"/>
<path d="M40.5913 125.061C33.5928 125.061 27.1399 123.954 23.7513 122.171C22.0956 121.301 21.2556 120.327 21.2556 119.274V104.047C21.2556 103.89 21.3842 103.761 21.5413 103.761C21.6985 103.761 21.827 103.89 21.827 104.047C21.827 105.001 22.8685 105.793 23.7413 106.289C26.9713 108.123 33.427 109.261 40.5913 109.261C47.7556 109.261 54.2113 108.121 57.4413 106.289C58.3142 105.793 59.3556 105.001 59.3556 104.047C59.3556 103.89 59.4842 103.761 59.6413 103.761C59.7985 103.761 59.927 103.89 59.927 104.047V119.274C59.927 120.327 59.087 121.301 57.4328 122.171C54.0442 123.954 47.5913 125.061 40.5913 125.061ZM21.8285 105.497V119.274C21.8285 120.087 22.5856 120.913 24.0185 121.666C27.3299 123.407 33.6813 124.49 40.5928 124.49C47.5042 124.49 53.857 123.409 57.1685 121.666C58.6013 120.913 59.357 120.086 59.357 119.274V105.497C58.9885 105.947 58.4442 106.377 57.7242 106.786C54.4128 108.666 47.847 109.833 40.5913 109.833C33.3356 109.833 26.7713 108.664 23.4599 106.786C22.7399 106.377 22.1956 105.947 21.827 105.497H21.8285Z" fill="black"/>
<path d="M59.6428 104.049C59.6428 104.944 58.8999 105.79 57.5842 106.539C54.437 108.324 48.0099 109.549 40.5928 109.549C33.1756 109.549 26.7485 108.324 23.6028 106.539C22.2856 105.791 21.5442 104.946 21.5442 104.049C21.5442 101.01 30.0728 98.5471 40.5942 98.5471C51.1156 98.5471 59.6442 101.01 59.6442 104.049H59.6428Z" fill="#FF444F"/>
<path d="M40.5913 109.834C33.3356 109.834 26.7713 108.666 23.4599 106.787C21.997 105.957 21.2556 105.036 21.2556 104.049C21.2556 100.426 31.087 98.2614 40.5913 98.2614C50.0956 98.2614 59.927 100.426 59.927 104.049C59.927 105.036 59.1856 105.957 57.7228 106.787C54.4113 108.667 47.8456 109.834 40.5899 109.834H40.5913ZM40.5913 98.8328C30.4199 98.8328 21.827 101.221 21.827 104.049C21.827 105.003 22.8685 105.794 23.7413 106.29C26.9713 108.124 33.427 109.263 40.5913 109.263C47.7556 109.263 54.2113 108.123 57.4413 106.29C58.3142 105.794 59.3556 105.003 59.3556 104.049C59.3556 101.221 50.7628 98.8328 40.5913 98.8328Z" fill="black"/>
<path d="M54.797 50.4329C59.9985 62.6215 59.1842 74.6515 52.9742 77.3015C52.2585 77.6072 51.4999 77.7757 50.717 77.8129C49.877 77.8529 49.0028 77.7472 48.1085 77.5029C42.5813 76.01 36.2742 69.3115 32.3128 60.0286C28.3513 50.7457 27.877 41.5557 30.6228 36.5315C31.0642 35.7172 31.5928 35.0129 32.2028 34.4343C32.7728 33.8943 33.4185 33.4629 34.1342 33.1586C40.3442 30.5086 49.5942 38.2429 54.797 50.4343V50.4329Z" fill="white"/>
<path d="M50.3699 78.1086C49.6156 78.1086 48.8313 77.9986 48.0342 77.78C42.2285 76.2114 35.9542 69.2872 32.0513 60.1414C28.147 50.9943 27.4885 41.6729 30.3727 36.3943C30.8299 35.5514 31.3799 34.8214 32.007 34.2257C32.607 33.6572 33.2856 33.2086 34.0227 32.8943C37.1299 31.5686 41.0385 32.6743 45.027 36.01C48.9627 39.3014 52.527 44.3829 55.0599 50.32C57.5927 56.2557 58.797 62.3443 58.4499 67.4629C58.0985 72.65 56.1927 76.2386 53.087 77.5643C52.3499 77.8786 51.557 78.0586 50.7313 78.0986C50.6113 78.1043 50.4913 78.1072 50.3699 78.1072V78.1086ZM36.7627 32.92C35.8742 32.92 35.0313 33.0857 34.247 33.42C33.5727 33.7086 32.9513 34.1186 32.3999 34.6414C31.817 35.1957 31.3027 35.8772 30.8742 36.6686C29.5327 39.1229 28.967 42.5786 29.2385 46.6657C29.517 50.8714 30.6713 55.4543 32.577 59.9186C34.4827 64.3829 36.9927 68.3857 39.8356 71.4957C42.5985 74.5172 45.4856 76.5 48.1842 77.2286C49.0527 77.4657 49.8999 77.5672 50.7042 77.5286C51.4627 77.4929 52.1885 77.3272 52.8627 77.04C58.917 74.4557 59.667 62.5714 54.5342 50.5457C52.0356 44.69 48.5285 39.6843 44.6599 36.45C41.877 34.1229 39.1556 32.9214 36.7627 32.9214V32.92Z" fill="black"/>
<path d="M50.7172 77.8143C51.5015 77.7772 52.2586 77.6086 52.9744 77.3029L41.0686 82.3843C34.8586 85.0343 25.6072 77.3 20.4044 65.1114C15.2015 52.92 16.0186 40.8886 22.2286 38.2386L34.1344 33.1572C33.4186 33.4629 32.7729 33.8929 32.2029 34.4329C31.5929 35.0115 31.0644 35.7157 30.6229 36.53C27.8772 41.5543 28.3515 50.7443 32.3129 60.0272C36.2744 69.31 42.5815 76.0086 48.1086 77.5014C49.0029 77.7457 49.8772 77.8514 50.7172 77.8114V77.8143Z" fill="#EBECEE"/>
<path d="M38.4429 83.1929C35.9115 83.1929 33.0658 81.9471 30.1758 79.5314C26.2386 76.24 22.6758 71.16 20.1415 65.2229C17.6072 59.2857 16.4043 53.1971 16.7515 48.0771C17.1043 42.8886 19.0086 39.3014 22.1158 37.9757L34.0215 32.8943C34.1672 32.8329 34.3344 32.9 34.3958 33.0443C34.4572 33.19 34.3901 33.3571 34.2458 33.4186C33.5715 33.7071 32.9501 34.1171 32.3986 34.64C31.8143 35.1943 31.3015 35.8757 30.8729 36.6671C29.5315 39.1214 28.9658 42.5771 29.2372 46.6643C29.5158 50.87 30.6701 55.4529 32.5758 59.9172C34.4815 64.3814 36.9915 68.3843 39.8343 71.4943C42.5972 74.5157 45.4844 76.4986 48.1829 77.2272C49.0515 77.4643 49.8986 77.5657 50.7029 77.5271C51.4615 77.49 52.1872 77.3257 52.8615 77.0386C53.0072 76.9772 53.1744 77.0443 53.2358 77.1886C53.2972 77.3343 53.2301 77.5014 53.0858 77.5629C53.0844 77.5629 53.0815 77.5643 53.0801 77.5657L41.1801 82.6443C40.3229 83.01 39.4058 83.19 38.4415 83.19L38.4429 83.1929ZM31.7444 34.4886L22.3415 38.5014C16.2858 41.0857 15.5358 52.9729 20.6686 64.9986C25.8015 77.0243 34.9029 84.7043 40.9572 82.12L50.3601 78.1072C49.6086 78.1072 48.8286 77.9957 48.0343 77.7786C42.2286 76.21 35.9543 69.2857 32.0515 60.14C28.1472 50.9929 27.4886 41.6714 30.3729 36.3929C30.7643 35.67 31.2258 35.03 31.7444 34.4871V34.4886Z" fill="black"/>
<path d="M86.1714 62.6972C86.9514 62.6614 87.7028 62.4972 88.4128 62.1943L52.9428 77.3329C52.2328 77.6357 51.4799 77.8014 50.7014 77.8357C49.8671 77.8729 48.9985 77.7629 48.1085 77.5157C42.6142 76.0014 36.3257 69.2772 32.3557 59.9757C28.3871 50.6757 27.8814 41.4814 30.5885 36.4657C31.0257 35.6514 31.5471 34.9486 32.1514 34.3729C32.7157 33.8372 33.3557 33.4057 34.0657 33.1029L69.5357 17.9643C68.8257 18.2672 68.1871 18.6972 67.6214 19.2343C67.0185 19.81 66.4957 20.5143 66.06 21.3272C63.3528 26.3443 63.8557 35.5386 67.8257 44.8386C71.7957 54.14 78.0857 60.8643 83.5799 62.3772C84.4685 62.6257 85.3371 62.7343 86.17 62.6972H86.1714Z" fill="white"/>
<path d="M50.3843 78.1286C49.6286 78.1286 48.8386 78.0157 48.0329 77.7914C42.2615 76.2014 36.0043 69.2528 32.0943 60.0886C28.1843 50.9257 27.4943 41.6 30.3386 36.33C30.7929 35.4857 31.3372 34.7571 31.9558 34.1657C32.5543 33.5971 33.2258 33.15 33.9543 32.84L69.4243 17.7014C69.57 17.64 69.7372 17.7071 69.7986 17.8514C69.8601 17.9957 69.7929 18.1643 69.6486 18.2257L69.6429 18.2286C68.9815 18.5114 68.3686 18.92 67.82 19.44C67.2443 19.99 66.7372 20.67 66.3143 21.46C64.9915 23.91 64.4429 27.3671 64.7258 31.4543C65.0172 35.6628 66.1815 40.2514 68.09 44.7243C69.9986 49.1971 72.5072 53.2128 75.3443 56.3343C78.1 59.3671 80.9743 61.3614 83.6586 62.1C84.5229 62.3414 85.3643 62.4457 86.16 62.41C86.9129 62.3757 87.6329 62.2143 88.3015 61.9286C88.4472 61.8671 88.6143 61.9343 88.6758 62.0786C88.7372 62.2243 88.67 62.3914 88.5258 62.4529C88.5243 62.4529 88.5215 62.4543 88.5201 62.4557L53.0558 77.5914C52.3229 77.9043 51.5343 78.0814 50.7158 78.1171C50.6072 78.1214 50.4972 78.1243 50.3858 78.1243L50.3843 78.1286ZM67.1672 19.2871L34.1772 33.3671C33.5115 33.6514 32.8958 34.06 32.3486 34.5814C31.7743 35.13 31.2658 35.81 30.8401 36.6028C29.5172 39.0528 28.9686 42.5086 29.2529 46.5971C29.5458 50.8043 30.7086 55.3928 32.6172 59.8657C34.5272 64.34 37.0343 68.3543 39.8701 71.4757C42.6258 74.5086 45.5 76.5028 48.1829 77.2414C49.05 77.4829 49.8915 77.5871 50.6872 77.5514C51.4386 77.5186 52.1586 77.3571 52.8286 77.07L85.8186 62.99C85.0729 62.9871 84.2958 62.8728 83.5029 62.6514C77.7301 61.0614 71.4729 54.1128 67.5629 44.95C63.6529 35.7871 62.9643 26.4614 65.8086 21.1914C66.1958 20.4671 66.6515 19.8271 67.1658 19.2871H67.1672Z" fill="black"/>
<path d="M77.2644 66.9514L104.179 126.816C103.489 125.199 98.6901 125.697 93.4573 127.93C88.2273 130.161 84.5472 133.281 85.2387 134.9L58.3244 75.0357C57.6344 73.4185 61.313 70.2985 66.543 68.0657C67.8487 67.5085 69.1287 67.0585 70.323 66.7242C70.763 66.8985 71.2015 67.0457 71.633 67.1642C72.6687 67.4528 73.6815 67.58 74.6544 67.5371C75.5615 67.4971 76.4387 67.3042 77.2658 66.95L77.2644 66.9514Z" fill="white"/>
<path d="M85.2386 135.186C85.13 135.186 85.0258 135.123 84.9772 135.017L58.0629 75.1528C57.6672 74.2271 58.3486 72.9885 60.0286 71.5643C61.6015 70.23 63.8757 68.8943 66.4315 67.8043C67.72 67.2543 69.0029 66.7985 70.2457 66.4514C70.3057 66.4343 70.37 66.4385 70.4286 66.4614C70.8586 66.6314 71.2886 66.7771 71.7086 66.8928C72.72 67.1757 73.7057 67.2971 74.6415 67.2557C75.5243 67.2157 76.3686 67.0271 77.1529 66.6914C77.2957 66.63 77.4615 66.6957 77.5257 66.8371L104.423 126.663C104.43 126.677 104.436 126.693 104.443 126.707C104.504 126.851 104.439 127.019 104.294 127.081C104.15 127.144 103.983 127.08 103.919 126.937L103.904 126.906C103.609 126.286 102.36 126.029 100.551 126.217C98.5543 126.424 96.0757 127.127 93.57 128.197C91.0657 129.266 88.8443 130.569 87.3129 131.867C85.9057 133.06 85.2286 134.153 85.5015 134.791C85.5629 134.936 85.4972 135.103 85.3529 135.166C85.3157 135.181 85.2772 135.19 85.2386 135.19V135.186ZM70.3072 67.0257C69.1172 67.3642 67.8886 67.8028 66.6543 68.3285C64.15 69.3971 61.9286 70.7 60.3972 71.9985C58.99 73.1914 58.3129 74.2843 58.5857 74.9228L85.0257 133.733C85.3043 133.047 85.9486 132.27 86.9415 131.429C88.5143 130.094 90.7886 128.759 93.3443 127.669C95.9 126.577 98.4386 125.86 100.491 125.646C101.75 125.514 102.737 125.58 103.423 125.834L77.1157 67.32C76.3429 67.6157 75.52 67.7857 74.6643 67.8242C73.6686 67.8685 72.6229 67.74 71.5543 67.4414C71.1457 67.3285 70.7257 67.19 70.3072 67.0271V67.0257Z" fill="black"/>
<path d="M104.176 126.809C104.866 128.426 101.187 131.546 95.9543 133.779C90.7243 136.01 85.9258 136.509 85.2358 134.891C84.5458 133.274 88.2243 130.154 93.4543 127.921C98.6872 125.689 103.486 125.19 104.176 126.807V126.809Z" fill="#EBECEE"/>
<path d="M87.7471 136.129C86.24 136.129 85.2885 135.747 84.9714 135.004C84.5785 134.084 85.2585 132.844 86.9385 131.42C88.5114 130.086 90.7857 128.75 93.3414 127.66C95.8971 126.569 98.4357 125.851 100.489 125.637C102.68 125.41 104.046 125.776 104.439 126.696C104.831 127.616 104.151 128.856 102.471 130.28C100.897 131.614 98.6228 132.95 96.0671 134.041C93.5114 135.131 90.9742 135.85 88.9228 136.063C88.5 136.107 88.1085 136.129 87.7485 136.129H87.7471ZM101.636 126.146C101.301 126.146 100.939 126.166 100.549 126.206C98.5514 126.413 96.0728 127.116 93.5671 128.186C91.0628 129.254 88.8414 130.557 87.31 131.856C85.9028 133.049 85.2257 134.141 85.4985 134.78C85.7714 135.419 87.0285 135.686 88.8628 135.496C90.86 135.289 93.3385 134.586 95.8414 133.517C98.3471 132.449 100.57 131.144 102.101 129.846C103.509 128.653 104.186 127.56 103.913 126.921C103.699 126.419 102.873 126.146 101.636 126.146Z" fill="black"/>
<path d="M100.078 56.7657C100.866 56.7272 101.627 56.5572 102.346 56.2514L88.407 62.2C82.1684 64.8629 72.8842 57.1172 67.6713 44.9029C62.457 32.6857 63.2884 20.6243 69.527 17.9615L83.4656 12.0129C82.747 12.32 82.097 12.7529 81.5256 13.2943C80.9127 13.8743 80.3813 14.5815 79.937 15.3986C77.1756 20.4372 77.6427 29.65 81.6127 38.9529C85.5827 48.2557 91.9113 54.9643 97.4599 56.4572C98.357 56.7015 99.2356 56.8072 100.078 56.7657Z" fill="#EBECEE"/>
<path d="M85.7628 63.0129C83.2228 63.0129 80.3685 61.7657 77.4714 59.35C73.5214 56.0543 69.9471 50.9643 67.4085 45.0157C64.87 39.0671 63.6657 32.9629 64.02 27.83C64.3785 22.6286 66.2942 19.0314 69.4157 17.6986L83.3542 11.75C83.5 11.6886 83.6671 11.7557 83.7285 11.9C83.79 12.0457 83.7228 12.2129 83.5785 12.2743L83.5728 12.2771C82.8971 12.5657 82.2742 12.9786 81.7214 13.5014C81.1342 14.0571 80.6185 14.7414 80.1871 15.5343C78.8385 17.9957 78.2671 21.4614 78.5342 25.5571C78.81 29.7729 79.9642 34.3657 81.8742 38.84C83.7828 43.3143 86.3 47.3243 89.1542 50.44C91.9257 53.4671 94.8228 55.4514 97.5328 56.18C98.4057 56.4171 99.2571 56.5186 100.063 56.4786C100.823 56.4414 101.55 56.2771 102.226 55.9886L102.231 55.9857C102.377 55.9243 102.544 55.9914 102.606 56.1357C102.667 56.2814 102.6 56.4486 102.456 56.51L88.5171 62.4586C87.6542 62.8271 86.73 63.0086 85.76 63.0086L85.7628 63.0129ZM81.0671 13.3486L69.64 18.2257C63.5557 20.8229 62.7914 32.74 67.9342 44.7914C73.0771 56.8429 82.2114 64.5343 88.2957 61.9371L99.7228 57.06C98.9685 57.06 98.1828 56.95 97.3857 56.7329C91.5571 55.1657 85.2628 48.23 81.3514 39.0657C77.44 29.9 76.7857 20.5557 79.6871 15.2614C80.0814 14.5357 80.5457 13.8929 81.0685 13.3471L81.0671 13.3486Z" fill="black"/>
<path d="M104.2 29.3128C109.413 41.5271 108.584 53.5885 102.346 56.25C101.627 56.5571 100.866 56.7257 100.078 56.7643C99.2356 56.8057 98.357 56.7 97.4599 56.4557C91.9113 54.9628 85.5828 48.2543 81.6128 38.9514C77.6428 29.6485 77.1756 20.4357 79.937 15.3971C80.3813 14.58 80.9128 13.8728 81.5256 13.2928C82.0985 12.7514 82.747 12.3185 83.4656 12.0114C89.7042 9.34854 98.9856 17.0943 104.2 29.3114V29.3128Z" fill="white"/>
<path d="M99.7228 57.06C98.9685 57.06 98.1828 56.95 97.3857 56.7329C91.5571 55.1657 85.2628 48.23 81.3514 39.0657C77.44 29.9 76.7857 20.5557 79.6871 15.2614C80.1471 14.4157 80.7 13.6843 81.33 13.0871C81.9328 12.5157 82.6142 12.0671 83.3542 11.75C86.4742 10.4186 90.3985 11.5243 94.4014 14.8643C98.3514 18.16 101.926 23.2514 104.464 29.2014C107.003 35.15 108.207 41.2514 107.853 46.3843C107.496 51.5843 105.579 55.1828 102.459 56.5143C101.719 56.83 100.923 57.0114 100.093 57.0514C99.97 57.0571 99.8471 57.06 99.7228 57.06ZM86.1128 11.7728C85.2185 11.7728 84.3685 11.94 83.5785 12.2771C82.9 12.5671 82.2757 12.9786 81.7228 13.5028C81.1357 14.0586 80.62 14.7428 80.1885 15.5357C78.84 17.9971 78.2685 21.4628 78.5357 25.5586C78.8114 29.7743 79.9657 34.3671 81.8757 38.8414C83.7842 43.3157 86.3028 47.3257 89.1557 50.4414C91.9271 53.4686 94.8242 55.4529 97.5342 56.1814C98.4071 56.4186 99.2571 56.52 100.066 56.48C100.827 56.4428 101.557 56.2771 102.234 55.9886C105.147 54.7457 106.94 51.32 107.283 46.3443C107.63 41.3014 106.441 35.2928 103.939 29.4257C101.434 23.5571 97.9171 18.5428 94.0357 15.3028C91.2457 12.9743 88.5157 11.7714 86.1142 11.7714L86.1128 11.7728Z" fill="black"/>
</svg>
