<svg width="36" height="24" viewBox="0 0 36 24" fill="none" xmlns="http://www.w3.org/2000/svg">
<path d="M24 0H33C34.6569 0 36 1.34315 36 3V21C36 22.6569 34.6569 24 33 24H24V0Z" fill="#FF002D"/>
<path d="M24 0H12V24H24V0Z" fill="white"/>
<path d="M3 0H12V24H3C1.34315 24 0 22.6569 0 21V3C0 1.34315 1.34315 0 3 0Z" fill="#001F9B"/>
<path fill-rule="evenodd" clip-rule="evenodd" d="M33 1.5H3C2.17157 1.5 1.5 2.17157 1.5 3V21C1.5 21.8284 2.17157 22.5 3 22.5H33C33.8284 22.5 34.5 21.8284 34.5 21V3C34.5 2.17157 33.8284 1.5 33 1.5ZM3 0C1.34315 0 0 1.34315 0 3V21C0 22.6569 1.34315 24 3 24H33C34.6569 24 36 22.6569 36 21V3C36 1.34315 34.6569 0 33 0H3Z" fill="black" fill-opacity="0.08"/>
</svg>
