<svg width="36" height="24" viewBox="0 0 36 24" fill="none" xmlns="http://www.w3.org/2000/svg">
<path fill-rule="evenodd" clip-rule="evenodd" d="M3.0128 0C1.35293 0 0 1.33916 0 2.99109V21.0089C0 22.6582 1.34887 24 3.0128 24H18V0H3.0128ZM9 3H4.5V4.5H3V9H4.5V10.5H9V9H10.5V4.5H9V3Z" fill="white"/>
<path d="M9 3H4.5V4.5H3V9H4.5V10.5H9V9H10.5V4.5H9V3Z" fill="#DE233C"/>
<path d="M8.25 3.75H5.25V5.25H3.75V8.25H5.25V9.75H8.25V8.25H9.75V5.25H8.25V3.75Z" fill="#333333"/>
<path d="M7.5 4.5H6V6H4.5V7.5H6V9H7.5V7.5H9V6H7.5V4.5Z" fill="#CCCCCD"/>
<path fill-rule="evenodd" clip-rule="evenodd" d="M18 24H32.9872C34.6511 24 36 22.6582 36 21.0089V2.99109C36 1.33916 34.6471 0 32.9872 0H18V24Z" fill="#DE233C"/>
<path fill-rule="evenodd" clip-rule="evenodd" d="M33 1.5H3C2.17157 1.5 1.5 2.17157 1.5 3V21C1.5 21.8284 2.17157 22.5 3 22.5H33C33.8284 22.5 34.5 21.8284 34.5 21V3C34.5 2.17157 33.8284 1.5 33 1.5ZM3 0C1.34315 0 0 1.34315 0 3V21C0 22.6569 1.34315 24 3 24H33C34.6569 24 36 22.6569 36 21V3C36 1.34315 34.6569 0 33 0H3Z" fill="black" fill-opacity="0.08"/>
</svg>
