<svg width="36" height="24" viewBox="0 0 36 24" fill="none" xmlns="http://www.w3.org/2000/svg">
<path d="M0 3C0 1.34315 1.34315 0 3 0H33C34.6569 0 36 1.34315 36 3V21C36 22.6569 34.6569 24 33 24H3C1.34315 24 0 22.6569 0 21V3Z" fill="#0D47A1"/>
<path d="M0 3C0 1.34315 1.34315 0 3 0H5.40831L15 6.39446V1.14441e-05H21V6.39446L30.5917 0H33C34.6569 0 36 1.34315 36 3L36 3.60556L27.9083 9.00001H36V15H27.9083L36 20.3945L36 21C36 22.6569 34.6569 24 33 24H30.5917L21 17.6056V24H15V17.6056L5.40834 24H3C1.34315 24 0 22.6569 0 21L7.689e-06 20.3945L8.09167 15H0L7.689e-06 9.00001H8.09167L7.689e-06 3.60557L0 3Z" fill="white"/>
<path d="M16.1379 0V10.0887H0V13.8719H16.1379V24H19.8621V13.8719H36V10.0887H19.8621V0H16.1379Z" fill="#F44336"/>
<path d="M34.1461 0.22673L21.1035 8.82756H23.3835L35.2426 1.00729C34.9432 0.670532 34.569 0.401688 34.1461 0.22673Z" fill="#F44336"/>
<path d="M35.5788 22.5338L24.3554 15.133H22.0753L34.7105 23.4649C35.0621 23.2205 35.3589 22.9027 35.5788 22.5338Z" fill="#F44336"/>
<path d="M1.79654 23.7489L14.8624 15.133H12.5823L0.722992 22.9533C1.01463 23.293 1.38098 23.5667 1.79654 23.7489Z" fill="#F44336"/>
<path d="M0.363968 1.56651L11.3751 8.82756H13.6552L1.18977 0.607475C0.851074 0.86412 0.568588 1.19106 0.363968 1.56651Z" fill="#F44336"/>
<path fill-rule="evenodd" clip-rule="evenodd" d="M33 1.5H3C2.17157 1.5 1.5 2.17157 1.5 3V21C1.5 21.8284 2.17157 22.5 3 22.5H33C33.8284 22.5 34.5 21.8284 34.5 21V3C34.5 2.17157 33.8284 1.5 33 1.5ZM3 0C1.34315 0 0 1.34315 0 3V21C0 22.6569 1.34315 24 3 24H33C34.6569 24 36 22.6569 36 21V3C36 1.34315 34.6569 0 33 0H3Z" fill="black" fill-opacity="0.08"/>
</svg>
